<svg width="92" height="95" viewBox="0 0 92 95" fill="none" xmlns="http://www.w3.org/2000/svg">
<g clip-path="url(#clip0_2003_302)">
<path d="M28.1298 48.3591C40.7028 50.0227 53.3923 50.2842 66.0236 49.1391C66.88 49.0624 66.889 47.7099 66.0236 47.7866C53.3923 48.9317 40.7028 48.6702 28.1298 47.0066C27.2779 46.8939 27.2824 48.2509 28.1298 48.3591Z" fill="#727272"/>
<path d="M31.031 94.0329C36.4655 94.7272 41.9359 95.0653 47.4153 94.9887C52.2355 94.9211 57.9256 95.133 62.4455 93.2259C63.2301 92.8923 62.8849 91.5849 62.0867 91.923C57.4503 93.8797 51.5091 93.6137 46.5499 93.6452C41.3575 93.6813 36.1785 93.3387 31.0265 92.6804C30.1745 92.5722 30.179 93.9247 31.031 94.0329Z" fill="#727272"/>
<path d="M27.6052 47.3177C21.3322 53.1695 18.4087 61.8931 19.0992 70.4003C19.4534 74.7959 20.691 79.0697 22.5518 83.0551C24.2467 86.6888 26.7443 91.8959 30.4929 93.7849C31.2641 94.1726 31.9457 93.0094 31.1699 92.6172C27.6814 90.859 25.3094 85.7961 23.7132 82.3743C21.8568 78.3845 20.6417 74.052 20.3906 69.6474C19.9422 61.7082 22.7132 53.724 28.5603 48.2735C29.197 47.6829 28.2419 46.7271 27.6052 47.3177Z" fill="#727272"/>
<path d="M65.5483 48.9544C72.1666 53.1245 72.7899 62.1186 72.6285 69.2012C72.4491 77.0997 71.4761 89.6148 62.0867 91.9231C61.2482 92.1305 61.6025 93.4334 62.4454 93.226C72.2473 90.8185 73.6553 78.3981 73.9512 70.0397C74.2247 62.2178 73.5342 52.3897 66.2254 47.7867C65.49 47.3268 64.8174 48.4945 65.5483 48.9544Z" fill="#727272"/>
<path d="M32.5779 48.3682C27.6411 53.7106 25.4619 62.6325 26.2959 69.7872C26.7802 73.9484 28.0895 78.078 29.0625 82.14C30.04 86.211 31.0489 90.2505 33.264 93.8436C33.7213 94.5829 34.8827 93.9022 34.4253 93.1628C32.3448 89.7906 31.3762 86.0217 30.457 82.2031C29.5692 78.5243 28.5334 74.841 27.8474 71.1217C26.547 64.0391 28.5828 54.6799 33.5285 49.324C34.1159 48.6838 33.1653 47.7281 32.5779 48.3682Z" fill="#727272"/>
<path d="M39.241 48.9316C35.5642 55.4416 33.6316 62.8353 33.7303 70.3281C33.7796 73.9257 34.2908 77.5279 35.2683 80.9903C36.4834 85.2867 38.3308 89.3622 39.1379 93.7758C39.2948 94.6324 40.5907 94.2672 40.4338 93.4152C39.7298 89.5515 38.2366 85.9539 37.0484 82.23C35.896 78.6144 35.2055 74.886 35.0889 71.0855C34.8558 63.5701 36.7121 56.1449 40.4024 49.6124C40.8328 48.855 39.6715 48.1743 39.241 48.9316Z" fill="#727272"/>
<path d="M43.2048 50.2256C44.4828 57.7365 42.9313 65.2608 43.0614 72.8033C43.1196 76.2476 43.8864 79.453 44.3348 82.8433C44.8011 86.3643 44.003 89.9844 43.568 93.4784C43.4604 94.3395 44.8056 94.3304 44.9132 93.4784C45.3526 89.9529 46.1463 86.3056 45.68 82.7531C45.2047 79.1194 44.4021 75.675 44.3976 71.9782C44.3886 64.5801 45.7517 57.236 44.5007 49.8695C44.3527 49.0129 43.0569 49.3736 43.2048 50.2256Z" fill="#727272"/>
<path d="M48.2493 49.599C50.6123 56.384 50.8993 63.5432 51.1369 70.6618C51.397 78.3936 51.0114 86.0036 49.5765 93.6136C49.4151 94.4657 50.711 94.8309 50.8724 93.9743C52.3297 86.247 52.7467 78.5108 52.4821 70.6618C52.24 63.426 51.944 56.1315 49.5451 49.2383C49.2627 48.4268 47.9623 48.7784 48.2493 49.599Z" fill="#727272"/>
<path d="M53.908 49.6306C54.4057 51.1589 55.4819 52.1778 56.3069 53.5212C57.2486 55.0541 57.7642 56.7898 58.0422 58.557C58.6475 62.4161 58.3606 66.4556 58.3516 70.3463C58.3426 74.5796 58.6655 79.0563 57.5759 83.1904C56.6163 86.8196 54.4147 89.9484 53.6793 93.6542C53.509 94.5063 54.8048 94.867 54.9752 94.0149C55.7644 90.0476 58.2036 86.6889 59.0646 82.7396C59.9479 78.7002 59.6878 74.4533 59.6968 70.3463C59.7058 66.5503 59.9344 62.6686 59.4367 58.8951C59.217 57.2271 58.8404 55.577 58.1229 54.0532C57.3248 52.3536 55.7868 51.0597 55.2084 49.2744C54.9348 48.4494 53.6345 48.801 53.908 49.6306Z" fill="#727272"/>
<path d="M60.4501 49.4185C63.1225 51.9432 64.4094 55.9736 65.3734 59.454C66.3778 63.0787 66.0415 66.9469 65.8173 70.6572C65.3645 78.1861 64.1 85.706 60.5084 92.4143C60.0958 93.1807 61.2572 93.866 61.6697 93.0951C65.499 85.9404 66.7769 77.8976 67.2029 69.8728C67.4181 65.8333 67.593 61.8885 66.333 57.9979C65.2389 54.6211 64.0327 50.9514 61.4007 48.4583C60.7729 47.8677 59.8178 48.8234 60.4501 49.4185Z" fill="#727272"/>
<path d="M32.4703 52.7999C32.3313 53.156 32.1788 53.5077 32.0129 53.8548C31.8022 54.2921 32.0488 54.8917 32.5958 54.8737C32.9859 54.8602 33.2953 54.6844 33.5733 54.4184C33.663 54.3327 33.7527 54.2425 33.8379 54.1569C33.95 54.0442 33.802 54.2245 33.8872 54.1208C33.8693 54.1479 33.7751 54.1388 33.8603 54.1479C33.6451 53.8638 33.4298 53.5753 33.2101 53.2913C33.1518 53.5933 33.0891 53.8954 33.0308 54.202C32.959 54.5581 33.1339 54.9323 33.5016 55.036C33.8334 55.1262 34.2594 54.9233 34.3311 54.5626C34.3894 54.2606 34.4522 53.9585 34.5105 53.652C34.6002 53.1921 34.3177 52.8405 33.8603 52.7954C33.4881 52.7593 33.1518 52.9577 32.8873 53.2011C32.7931 53.2868 32.7124 53.3769 32.6183 53.4626C32.5869 53.4897 32.56 53.5167 32.5286 53.5438C32.542 53.5302 32.5555 53.5212 32.5689 53.5077C32.5017 53.5438 32.5017 53.5483 32.5779 53.5167C32.5017 53.5347 32.5062 53.5392 32.5914 53.5167C32.7842 53.8548 32.977 54.1929 33.1743 54.5356C33.3895 54.0847 33.5868 53.6249 33.7661 53.1605C33.8962 52.8179 33.6227 52.4167 33.2953 52.3265C32.9187 52.2228 32.6048 52.4572 32.4703 52.7999Z" fill="#727272"/>
<path d="M29.1388 60.8924C29.076 61.2711 29.0132 61.6498 28.9504 62.0239C28.9011 62.326 28.9818 62.6235 29.2598 62.7858C29.5064 62.9301 29.8786 62.9031 30.0759 62.6822C30.2059 62.5334 30.336 62.3846 30.466 62.2358C30.5512 62.1366 30.6723 61.9518 30.7754 61.8977C30.6633 61.9293 30.5512 61.9608 30.4346 61.9879C30.457 61.9834 30.4839 61.9834 30.5064 61.9789C30.3943 61.9473 30.2822 61.9157 30.1656 61.8887C30.1835 61.9022 30.2015 61.9157 30.2194 61.9293C30.1073 61.7354 29.9952 61.5416 29.8876 61.3432C29.9234 61.7309 29.8158 62.1637 29.771 62.5559C29.7082 63.1195 30.3763 63.3268 30.7844 63.142C31.3135 62.894 31.6677 62.4387 31.856 61.8932C31.4794 61.9924 31.1072 62.0916 30.7306 62.1907C30.7171 62.1051 30.7037 62.0194 30.6902 61.9338C30.4705 62.7768 31.7708 63.1375 31.9861 62.2944C32.0847 61.9112 31.995 61.492 31.6812 61.235C31.2776 60.9059 30.735 61.0231 30.5557 61.5325C30.475 61.758 30.3091 61.8752 30.1028 61.9743C30.4391 62.1682 30.7754 62.3621 31.1162 62.5604C31.1834 61.9563 31.5063 60.8833 30.6812 60.6534C29.9862 60.4596 29.4975 61.2891 29.1208 61.7264C29.4975 61.9473 29.8696 62.1637 30.2463 62.3846C30.3091 62.0059 30.3718 61.6272 30.4346 61.253C30.4929 60.8924 30.3405 60.5227 29.9638 60.419C29.6454 60.3333 29.197 60.5317 29.1388 60.8924Z" fill="#727272"/>
<path d="M28.5603 69.0389C28.6051 69.5709 28.6545 70.1029 28.6993 70.6303C28.7665 71.3832 29.7754 71.559 30.0221 70.8107C30.1566 70.3959 30.3449 70.0217 30.5825 69.652C30.1745 69.5979 29.762 69.5438 29.3539 69.4897C29.5109 69.8819 29.6185 70.2832 29.6768 70.707C29.744 71.1849 30.3225 71.266 30.6633 71.1127C30.8336 71.0361 30.9726 70.8873 31.0623 70.725C31.1027 70.6529 31.1341 70.5672 31.161 70.4906C31.1744 70.45 31.1834 70.4094 31.1968 70.3688C31.2193 70.3012 31.2103 70.3057 31.1789 70.3824C31.0803 70.441 30.9816 70.4996 30.883 70.5582C30.9054 70.5492 30.9323 70.5447 30.9547 70.5357C30.8336 70.5357 30.7171 70.5357 30.596 70.5357C30.587 70.5311 30.5781 70.5266 30.5736 70.5176C30.4929 70.4365 30.4122 70.3553 30.3314 70.2742C30.3449 70.2922 30.3539 70.3102 30.3673 70.3283C30.3449 70.1524 30.3225 69.9811 30.3001 69.8053C30.2956 69.8278 30.2956 69.8504 30.2911 69.8684C30.2418 70.2291 30.3763 70.5943 30.7619 70.7025C31.0758 70.7881 31.5421 70.5943 31.5914 70.2291C31.6318 69.936 31.6094 69.6701 31.3941 69.4492C31.2148 69.2688 30.9413 69.1832 30.6902 69.2102C30.4301 69.2418 30.2014 69.3951 30.0624 69.616C30.0041 69.7106 29.9234 69.8414 29.9189 69.9496C29.9144 70.1074 29.8472 69.9947 29.9907 69.9315C30.318 70.0668 30.6498 70.202 30.9771 70.3373C30.9188 69.918 30.8112 69.5168 30.6543 69.12C30.4391 68.5881 29.7575 68.4348 29.4257 68.9577C29.1297 69.4221 28.9011 69.918 28.7307 70.4365C29.1701 70.4951 29.6095 70.5582 30.0534 70.6168C30.0086 70.0848 29.9593 69.5528 29.9144 69.0254C29.8831 68.6602 29.6275 68.3491 29.2418 68.3491C28.8966 68.3626 28.5289 68.6737 28.5603 69.0389Z" fill="#727272"/>
<path d="M30.179 78.5784C30.2238 79.3583 30.6139 80.0391 31.291 80.4358C31.7394 80.6928 32.2954 80.3637 32.3044 79.8497C32.3089 79.453 32.3985 79.0878 32.551 78.7226C32.1744 78.8218 31.8022 78.921 31.4255 79.0202C31.6094 79.2456 31.8067 79.444 32.0264 79.6288C32.3851 79.9309 33.0398 79.8723 33.1519 79.3313C33.1788 79.2095 33.2101 79.1058 33.2505 78.9931C32.8738 79.0923 32.5017 79.1915 32.125 79.2907C32.1654 79.2681 32.1878 79.2952 32.1833 79.3673C32.3268 79.7054 32.82 79.7776 33.1025 79.6108C33.4478 79.4079 33.4881 79.0247 33.3447 78.6866C33.2864 78.5513 33.1922 78.4296 33.0756 78.3349C32.6586 78.0058 32.1474 78.1275 31.9502 78.6325C31.9053 78.7452 31.8739 78.8534 31.8515 78.9706C32.2282 78.8714 32.6003 78.7722 32.977 78.673C32.7573 78.4882 32.56 78.2853 32.3761 78.0644C32.0174 77.6226 31.4255 77.9517 31.2507 78.362C31.0534 78.8353 30.9637 79.3358 30.9547 79.8497C31.291 79.6559 31.6273 79.462 31.9681 79.2636C31.708 79.1149 31.5376 78.8804 31.5197 78.5739C31.4749 77.7173 30.1297 77.7083 30.179 78.5784Z" fill="#727272"/>
<path d="M32.9501 87.852C33.107 88.2577 33.2954 88.6319 33.551 88.9881C33.95 89.5381 34.7437 89.3352 34.8065 88.6455C34.8109 88.6049 34.8827 88.1045 34.8558 88.0819C34.663 88.2036 34.4746 88.3254 34.2818 88.4471C34.3267 88.5102 34.367 88.5688 34.4164 88.6274C34.5867 88.8438 34.7975 89.0287 35.071 89.1053C35.2818 89.1594 35.5284 89.1324 35.7122 89.0151C35.8333 88.934 35.9185 88.8393 35.9813 88.7086C36.0037 88.6545 36.0261 88.6004 36.0485 88.5463C36.1516 88.2217 35.9543 88.1676 35.4611 88.384C35.7302 89.2045 37.0305 88.8528 36.757 88.0233C36.5686 87.4553 36.0216 87.0856 35.4252 87.311C35.1831 87.4057 34.9724 87.586 34.8558 87.8204C34.8199 87.8926 34.6899 88.2036 34.7347 88.2938C34.9948 88.145 35.2504 87.9917 35.5104 87.843C35.4746 87.7979 35.4387 87.7573 35.4073 87.7122C35.1921 87.2749 34.5688 87.027 34.1204 87.1893C33.4882 87.4147 33.5151 88.0909 33.4658 88.65C33.8828 88.5373 34.2998 88.4245 34.7213 88.3073C34.5374 88.0549 34.3715 87.7889 34.2549 87.4958C33.9321 86.6934 32.6317 87.0405 32.9501 87.852Z" fill="#727272"/>
<path d="M40.1379 52.9846C39.6536 53.3498 39.2501 53.7826 38.9855 54.3371C38.6402 55.0585 39.4429 55.6265 40.0437 55.1576C40.1872 55.0449 40.3307 54.9322 40.4742 54.8195C40.5369 54.7699 40.5997 54.7203 40.667 54.6708C40.6984 54.6437 40.7298 54.6212 40.7611 54.5941C40.8732 54.513 40.815 54.5265 40.5863 54.6302C40.4742 54.5986 40.3621 54.5671 40.2455 54.54C40.2589 54.549 40.2724 54.558 40.2858 54.5671C40.2051 54.4859 40.1244 54.4048 40.0437 54.3236C40.0303 54.265 40.0123 54.2109 39.9989 54.1523C40.0034 54.0892 40.0034 54.0802 39.9899 54.1343C39.9585 54.1568 39.9496 54.3101 39.9496 54.3326C39.9182 54.54 39.9361 54.7429 40.0437 54.9322C40.1424 55.1035 40.3172 55.2568 40.51 55.3064C40.5908 55.329 40.6939 55.338 40.7791 55.338C40.8598 55.338 40.9315 55.3245 41.0033 55.2974C41.0974 55.2704 41.0661 55.2613 40.9046 55.2704C40.806 55.2117 40.7073 55.1531 40.6087 55.0945C40.6221 55.1081 40.6356 55.1216 40.649 55.1351C40.5908 55.0359 40.5325 54.9367 40.4742 54.8376C40.4787 54.8511 40.4831 54.8691 40.4876 54.8826C40.51 54.7068 40.5325 54.5355 40.5549 54.3597C40.5459 54.3732 40.5414 54.3867 40.5325 54.4003C40.1244 55.1667 41.2858 55.8519 41.6938 55.081C41.8687 54.7564 41.8283 54.3912 41.5548 54.1343C41.4113 53.999 41.2185 53.9179 41.0212 53.9134C40.9091 53.9088 40.7791 53.981 40.6804 53.972C40.7925 54.0035 40.9046 54.0351 41.0212 54.0621C41.0033 54.0486 40.9853 54.0351 40.9719 54.0261C41.0526 54.1072 41.1333 54.1884 41.214 54.2695C41.2051 54.2515 41.1961 54.2334 41.1871 54.2154C41.2185 54.3281 41.2499 54.4408 41.2768 54.558C41.2678 54.4724 41.2813 54.5175 41.3127 54.3912C41.3485 54.2334 41.353 54.0621 41.3172 53.8998C41.2409 53.5752 40.9988 53.3408 40.6759 53.2822C40.3397 53.2191 40.111 53.3949 39.8554 53.5933C39.5998 53.7916 39.3442 53.9945 39.0886 54.1929C39.4429 54.4679 39.7926 54.7384 40.1468 55.0134C40.3083 54.6798 40.5145 54.3732 40.815 54.1478C41.1064 53.9314 41.2544 53.5617 41.0571 53.2236C40.8912 52.9396 40.4338 52.7682 40.1379 52.9846Z" fill="#727272"/>
<path d="M37.5058 60.5947C37.3937 61.1357 37.2861 61.6767 37.174 62.2222C37.035 62.9119 37.7793 63.3087 38.2994 62.8804C38.4519 62.7541 38.5864 62.5963 38.6851 62.425C38.7523 62.3078 38.833 62.0689 38.8689 62.0103C38.7882 62.0914 38.7075 62.1726 38.6268 62.2537C38.6492 62.2402 38.6671 62.2267 38.6895 62.2086C38.5774 62.2402 38.4653 62.2717 38.3488 62.2988C38.3757 62.2943 38.4026 62.2943 38.4295 62.2898C38.3174 62.2582 38.2053 62.2267 38.0887 62.1996C37.9811 62.15 37.9766 61.9742 38.008 62.2041C38.017 62.2627 38.0304 62.3123 38.0483 62.3664C38.1111 62.5693 38.2232 62.7496 38.3936 62.8759C38.5505 62.9931 38.7344 63.0562 38.9317 63.0517C39.0527 63.0472 39.1648 63.0156 39.2725 62.9615C39.3307 62.939 39.3801 62.9074 39.4249 62.8668C39.5415 62.7857 39.5101 62.7902 39.3352 62.8714C39.2231 62.8398 39.111 62.8082 38.9945 62.7812C39.0124 62.7902 39.0169 62.7992 39.0303 62.8353C39.3173 63.6513 40.6176 63.2996 40.3262 62.4746C40.2006 62.1185 40.0168 61.7894 39.6715 61.6135C39.4922 61.5189 39.268 61.4918 39.0707 61.5369C38.8734 61.582 38.7568 61.7127 38.5864 61.7939C38.6985 61.7623 38.8106 61.7308 38.9272 61.7037C38.9048 61.7037 38.8779 61.7037 38.8554 61.7037C38.9675 61.7353 39.0796 61.7668 39.1962 61.7939C39.3173 62.0058 39.3532 62.0373 39.3038 61.8885C39.2949 61.8299 39.2859 61.7713 39.2769 61.7127C39.2456 61.5955 39.1962 61.4738 39.1335 61.3746C38.9675 61.1131 38.694 60.9418 38.3846 60.9463C38.0797 60.9508 37.8017 61.1266 37.6582 61.3926C37.5372 61.618 37.5461 61.7533 37.3399 61.9246C37.7165 62.1455 38.0887 62.3619 38.4653 62.5828C38.5774 62.0418 38.6851 61.5008 38.7972 60.9598C38.9765 60.1033 37.6807 59.7426 37.5058 60.5947Z" fill="#727272"/>
<path d="M36.9856 67.5061C36.8466 68.232 36.7569 68.9623 36.7345 69.6972C36.7166 70.2111 37.3174 70.5357 37.7479 70.2832C37.9452 70.166 38.0887 70.0082 38.1963 69.8054C38.2366 69.7287 38.3532 69.5529 38.3308 69.4853C38.3263 69.4763 38.286 69.5349 38.3039 69.5258C38.1918 69.5574 38.0797 69.589 37.9631 69.616C37.9542 69.6205 37.9407 69.6205 37.9317 69.625C37.851 69.5439 37.7703 69.4627 37.6896 69.3816C37.7658 69.4808 37.7569 69.4717 37.7658 69.5754C37.8152 70.13 38.4788 70.4996 38.9137 70.0533C38.963 69.9992 39.0124 69.9496 39.0662 69.9C38.972 69.9451 38.8734 69.9361 38.7792 69.882C38.7209 69.7828 38.6626 69.6836 38.6043 69.5845C38.6133 69.6115 38.6223 69.6386 38.6357 69.6656C38.7613 70.0082 39.0931 70.2427 39.4652 70.139C39.7926 70.0488 40.0616 69.6521 39.9361 69.3049C39.5863 68.3492 38.5685 68.4709 37.9631 69.0976C38.3443 69.2553 38.7299 69.4176 39.111 69.5754C39.0572 68.9217 38.7344 68.2139 37.9631 68.2635C37.6492 68.2815 37.3712 68.4664 37.2053 68.7324C37.147 68.8271 37.1067 68.9353 37.0619 69.0389C37.0125 69.1517 36.9273 69.1922 37.0663 69.1111C37.4026 69.3049 37.7389 69.4988 38.0797 69.6972C38.0976 69.0795 38.1649 68.4709 38.2815 67.8623C38.4474 67.0147 37.1515 66.654 36.9856 67.5061Z" fill="#727272"/>
<path d="M37.6537 75.2287C37.8062 75.8328 37.99 76.4234 38.2053 77.0049C38.3801 77.4783 38.9406 77.6767 39.3307 77.3025C39.5011 77.1357 39.6177 76.9418 39.676 76.7074C39.6984 76.6127 39.7163 76.5 39.7208 76.4053C39.7343 76.1168 39.7029 76.3558 39.7298 76.3422C39.6177 76.3738 39.5056 76.4053 39.389 76.4324C39.4204 76.4324 39.4473 76.4279 39.4787 76.4279C39.3666 76.3963 39.2545 76.3648 39.1379 76.3377C39.0482 76.2971 39.0751 76.2566 39.1469 76.3828C39.1827 76.4459 39.2141 76.5 39.259 76.5586C39.398 76.739 39.5684 76.8607 39.797 76.8922C39.9988 76.9193 40.1916 76.8697 40.362 76.7525C40.4562 76.6849 40.5414 76.6082 40.6042 76.509C40.6311 76.4549 40.658 76.4008 40.6804 76.3467C40.7701 76.1709 40.6938 76.216 40.4517 76.4865C40.3306 76.4865 40.2141 76.4865 40.093 76.4865C40.0392 76.4414 39.9899 76.3918 39.9361 76.3467C39.9047 76.234 39.8733 76.1213 39.8464 76.0041C39.8464 76.0312 39.8464 76.0582 39.8464 76.0853C39.8329 76.9554 41.1781 76.9554 41.1916 76.0853C41.2005 75.6299 40.8866 75.2738 40.4517 75.1836C40.2185 75.134 39.9854 75.1836 39.7926 75.3233C39.6984 75.391 39.6222 75.4676 39.5594 75.5623C39.5459 75.5893 39.5325 75.6209 39.5146 75.6479C39.398 75.8734 39.4294 75.8689 39.6132 75.6344C39.7253 75.6029 39.8374 75.5713 39.954 75.5443C39.9316 75.5488 39.9091 75.5488 39.8867 75.5533C39.9988 75.5848 40.1109 75.6164 40.2275 75.6434C40.4203 75.7381 40.3217 75.7066 40.2499 75.5803C40.1961 75.4811 40.1244 75.3865 40.0437 75.3143C39.7881 75.0844 39.4518 75.0258 39.1334 75.1385C38.8778 75.2287 38.685 75.427 38.555 75.657C38.4833 75.7877 38.4474 75.9184 38.4205 76.0627C38.407 76.1258 38.4205 76.3062 38.3801 76.3467C38.7568 76.4459 39.1289 76.5451 39.5056 76.6443C39.2904 76.0627 39.1065 75.4676 38.9541 74.868C38.7344 74.0295 37.4385 74.3856 37.6537 75.2287Z" fill="#727272"/>
<path d="M38.3309 81.6891C38.573 82.4059 38.8824 83.0957 39.2635 83.7449C39.537 84.2092 40.1424 84.1551 40.4248 83.7449C40.5011 83.6322 40.5549 83.515 40.5908 83.3842C40.5952 83.3436 40.5997 83.3076 40.6087 83.267C40.6804 83.0055 40.6177 83.0145 40.4114 83.2986C40.2903 83.2986 40.1738 83.2986 40.0527 83.2986C39.8644 83.24 39.9496 83.2535 40.0482 83.3617C40.1199 83.4383 40.2096 83.5195 40.3038 83.5736C40.4966 83.6818 40.7253 83.7223 40.945 83.7043C41.4472 83.6682 41.7925 83.3346 41.9584 82.8793C42.2588 82.0633 40.9584 81.7071 40.6625 82.5186C40.7477 82.2932 40.9584 82.4194 40.9226 82.3112C40.8957 82.2346 40.7387 82.1309 40.667 82.0903C40.4473 81.9641 40.1827 81.9371 39.9451 82.0182C39.7254 82.0903 39.5505 82.2571 39.4384 82.46C39.3397 82.6403 39.3666 82.9108 39.259 83.0641C39.6446 83.0641 40.0347 83.0641 40.4204 83.0641C40.093 82.5096 39.8285 81.9416 39.6222 81.3329C39.3532 80.5124 38.0528 80.8641 38.3309 81.6891Z" fill="#727272"/>
<path d="M40.102 89.403C40.1065 89.7772 40.1603 90.1514 40.2768 90.503C40.362 90.76 40.5638 90.9493 40.8373 90.9854C41.084 91.017 41.3934 90.9043 41.5054 90.6608C41.5817 90.4985 41.6579 90.3362 41.7341 90.1784C41.77 90.1018 41.8059 90.0296 41.8373 89.953C41.8552 89.9169 41.8731 89.8764 41.8911 89.8403C41.9269 89.7727 41.9269 89.7727 41.8911 89.8403C41.7924 89.8989 41.6938 89.9575 41.5951 90.0161C41.6086 90.0116 41.6265 90.0026 41.64 89.9981C41.5189 89.9981 41.4023 89.9981 41.2813 89.9981C41.2588 89.9891 41.2319 89.9755 41.2095 89.9665C41.1288 89.8854 41.0481 89.8042 40.9674 89.7231C40.9001 89.6104 40.9629 89.705 40.9898 89.7817C41.0122 89.8538 41.0391 89.9214 41.0615 89.9936C41.1109 90.1333 41.1602 90.2776 41.205 90.4174C41.3216 90.7645 41.6669 90.9899 42.0346 90.8907C42.3664 90.8006 42.622 90.4038 42.5054 90.0567C42.3126 89.4977 42.1511 88.578 41.3709 88.6817C40.7656 88.7628 40.5638 89.5022 40.3396 89.98C40.7477 90.0341 41.1602 90.0882 41.5682 90.1423C41.483 89.8764 41.4427 89.66 41.4382 89.3985C41.4337 89.0468 41.1333 88.7042 40.7656 88.7222C40.4114 88.7403 40.0975 89.0243 40.102 89.403Z" fill="#727272"/>
<path d="M46.2808 90.2233C46.245 90.5299 46.2091 90.841 46.1732 91.1475C46.1373 91.4361 46.4064 91.7291 46.6664 91.8012C46.9714 91.8869 47.2538 91.7381 47.4242 91.4902C47.5453 91.3143 47.6664 91.143 47.7874 90.9672C47.8412 90.886 47.8995 90.8094 47.9533 90.7283C47.9758 90.6967 47.9982 90.6651 48.0206 90.6336C48.1192 90.4983 48.1058 90.5073 47.9847 90.6606C47.8726 90.6922 47.7605 90.7237 47.6439 90.7508C47.6664 90.7508 47.6843 90.7508 47.7067 90.7508C47.5946 90.7192 47.4825 90.6877 47.3659 90.6606C47.2314 90.4262 47.1866 90.3811 47.2314 90.5254C47.2449 90.5795 47.2538 90.6381 47.2673 90.6922C47.2897 90.8049 47.3121 90.9131 47.339 91.0258C47.3884 91.2602 47.4108 91.5352 47.5318 91.7471C47.6484 91.9455 47.8412 92.1168 48.0654 92.1799C48.4107 92.2746 48.6932 92.0988 48.895 91.8283C49.1147 91.5352 48.9398 91.0709 48.6528 90.9041C48.3076 90.7012 47.9533 90.8545 47.7336 91.1475C47.7247 91.1611 47.7157 91.1746 47.7067 91.1836C47.8995 91.0709 48.0923 90.9582 48.2896 90.85C48.2762 90.85 48.2627 90.8545 48.2493 90.8545C48.3614 90.886 48.4735 90.9176 48.5901 90.9447C48.7066 91.0033 48.7784 91.3324 48.7111 90.9988C48.6932 90.9041 48.6708 90.8139 48.6528 90.7192C48.617 90.5524 48.5856 90.3856 48.5497 90.2188C48.469 89.8672 48.2582 89.5245 47.8906 89.4208C47.4825 89.3081 47.1597 89.5426 46.931 89.8491C46.7023 90.1602 46.4871 90.4803 46.2674 90.7959C46.6844 90.9086 47.1014 91.0213 47.5229 91.1385C47.5588 90.8319 47.5946 90.5209 47.6305 90.2143C47.6709 89.8491 47.2897 89.5381 46.9579 89.5381C46.5588 89.5471 46.3257 89.8627 46.2808 90.2233Z" fill="#727272"/>
<path d="M46.9265 77.8751C46.7606 78.5964 46.6799 79.3358 46.6933 80.0752C46.7023 80.7108 47.635 81.0399 47.9488 80.4178C48.0834 80.1473 48.2179 79.8813 48.3524 79.6108C48.451 79.4124 48.5228 79.1645 48.7021 79.0247C48.6035 79.0833 48.5049 79.1419 48.4062 79.2005C48.4062 79.196 48.4062 79.1915 48.4107 79.187C48.1955 79.0202 47.9802 78.8579 47.7605 78.6911C47.8457 79.0112 47.9309 79.3313 48.0161 79.6514C48.1237 80.0526 48.6394 80.2961 49.0026 80.0571C49.0653 80.0166 49.1281 79.9715 49.1909 79.9309C49.9083 79.453 49.2357 78.2809 48.5138 78.7632C48.451 78.8038 48.3883 78.8489 48.3255 78.8895C48.6528 79.0247 48.9846 79.16 49.312 79.2952C49.2268 78.9751 49.1416 78.655 49.0564 78.335C48.9802 78.0509 48.7021 77.8345 48.4062 77.839C47.4601 77.8571 47.1373 79.0383 46.7875 79.7415C47.2045 79.8543 47.6215 79.967 48.043 80.0842C48.034 79.4575 48.0878 78.8534 48.2268 78.2403C48.4152 77.3882 47.1193 77.0275 46.9265 77.8751Z" fill="#727272"/>
<path d="M45.6441 67.7585C45.6755 68.2905 45.7024 68.8179 45.7338 69.3499C45.7697 70.0171 46.6216 70.2741 46.9893 69.6926C47.2494 69.2778 47.5095 68.8675 47.7695 68.4528C47.3839 68.4528 46.9938 68.4528 46.6082 68.4528C46.7024 68.6151 46.7606 68.7638 46.7696 68.9532C46.801 69.5483 47.4781 69.8323 47.9175 69.4311C48.2583 69.1245 48.478 68.7548 48.6439 68.3265C48.3166 68.4618 47.9848 68.597 47.6574 68.7323C47.6574 68.7413 47.6574 68.7503 47.653 68.7548C47.5947 68.6556 47.5364 68.5565 47.4781 68.4573C47.4915 68.4843 47.5005 68.5159 47.514 68.5429C47.653 68.8811 47.9579 69.12 48.3435 69.0163C48.6574 68.9306 48.9533 68.5249 48.8143 68.1823C48.6977 67.9073 48.5766 67.7404 48.3345 67.5601C47.9534 67.2761 47.487 67.6007 47.348 67.9659C47.2673 68.1732 47.1283 68.3265 46.9669 68.4753C47.348 68.6331 47.7337 68.7954 48.1148 68.9532C48.0924 68.5294 47.9848 68.1372 47.7695 67.772C47.505 67.3257 46.8772 67.3437 46.6082 67.772C46.3481 68.1868 46.0881 68.597 45.828 69.0118C46.245 69.1245 46.662 69.2372 47.0835 69.3544C47.0521 68.8224 47.0252 68.295 46.9938 67.763C46.94 66.8929 45.5948 66.8884 45.6441 67.7585Z" fill="#727272"/>
<path d="M46.0073 58.8184C45.967 59.161 45.949 59.5036 45.958 59.8463C45.9715 60.3151 46.5364 60.7479 46.9714 60.4323C47.1956 60.27 47.3346 60.0852 47.4108 59.8192C47.4287 59.7561 47.4467 59.684 47.4556 59.6209C47.4646 59.5622 47.5005 59.5577 47.4512 59.6028C47.218 59.8192 46.9714 60.1303 46.5992 59.6795C46.6396 59.7291 46.6261 59.7245 46.5992 59.6659C46.6306 59.7336 46.653 59.8102 46.6844 59.8778C46.7382 59.995 46.8189 60.0987 46.9086 60.1889C47.1866 60.4639 47.5991 60.518 47.9354 60.3241C48.2538 60.1438 48.3569 59.711 48.1776 59.3999C47.9892 59.0799 47.5767 58.9762 47.2584 59.1565C47.2449 59.1655 47.227 59.1745 47.2135 59.1835C47.3256 59.152 47.4377 59.1204 47.5543 59.0934C47.5902 59.0889 47.913 59.2692 47.8861 59.2782C47.904 59.3143 47.904 59.3143 47.8906 59.2827C47.8771 59.2467 47.8637 59.2106 47.8458 59.1745C47.7919 59.0438 47.7292 58.9221 47.6305 58.8139C47.4108 58.5839 47.07 58.4712 46.7606 58.5704C46.4692 58.6606 46.2764 58.895 46.1822 59.179C46.1598 59.2422 46.1508 59.3053 46.1329 59.3729C46.1239 59.4045 46.115 59.4315 46.1105 59.4631C46.0925 59.5217 46.0925 59.5217 46.115 59.4631C46.1419 59.3774 46.2001 59.3098 46.2898 59.2647C46.6261 59.4586 46.9624 59.6524 47.3032 59.8508C47.2942 59.5081 47.3122 59.1655 47.3525 58.8229C47.3974 58.4712 47.0117 58.1331 46.6799 58.1466C46.2809 58.1647 46.0567 58.4442 46.0073 58.8184Z" fill="#727272"/>
<path d="M45.5948 51.8845C45.4693 52.3804 45.532 52.8899 45.7966 53.3272C46.1105 53.8591 46.8324 53.6968 47.0252 53.1649C47.0969 52.9665 46.9893 53.2866 47.0566 53.0837C47.0835 53.0071 47.1059 53.0431 47.0386 53.0747C46.8324 53.1829 46.5544 53.1108 46.4916 52.8403C46.5768 53.1964 46.9759 53.4083 47.3211 53.3136C47.6799 53.2145 47.8771 52.8403 47.7919 52.4796C47.6709 51.9656 47.1149 51.6906 46.6172 51.8079C46.1284 51.9296 45.8908 52.3579 45.7293 52.7997C46.1374 52.7456 46.5499 52.6915 46.9579 52.6374C46.8907 52.5202 46.8817 52.5292 46.8683 52.3894C46.8772 52.4616 46.8727 52.3714 46.8727 52.3489C46.8817 52.1505 46.8458 52.43 46.8907 52.2361C46.9759 51.8935 46.7786 51.4878 46.4199 51.4021C46.0746 51.33 45.689 51.5148 45.5948 51.8845Z" fill="#727272"/>
<path d="M26.3676 50.2887C26.1703 50.5502 25.991 50.8252 25.8341 51.1138C25.5695 51.5871 26.0179 52.3265 26.5918 52.1056C26.7981 52.029 26.9999 51.9478 27.2061 51.8712C26.9326 51.7134 26.6546 51.5556 26.3766 51.3978C26.4125 51.5015 26.4304 51.5691 26.4259 51.6728C26.4214 52.0154 26.7398 52.3806 27.0985 52.349C27.4348 52.322 27.7218 52.2408 28.0222 52.0966C28.3495 51.9388 28.4347 51.4654 28.2643 51.1724C28.0671 50.8342 27.6725 50.7711 27.3451 50.9289C27.2779 50.9605 27.1523 50.992 27.0985 50.9965C27.3227 51.222 27.5469 51.4474 27.7711 51.6728C27.7756 51.4564 27.7442 51.24 27.6725 51.0371C27.5604 50.717 27.2061 50.4285 26.8429 50.5638C26.6367 50.6404 26.4349 50.7215 26.2286 50.7982C26.4797 51.1273 26.7353 51.4609 26.9864 51.79C27.1478 51.5015 27.3227 51.2265 27.52 50.965C27.7397 50.6719 27.5649 50.2076 27.2779 50.0408C26.9416 49.8469 26.5874 49.9957 26.3676 50.2887Z" fill="#727272"/>
<path d="M22.5608 57.8808C22.3053 58.4443 22.0855 59.0214 21.9062 59.6165C21.7941 59.9861 22.0407 60.3288 22.377 60.4505C22.664 60.5542 22.9734 60.4911 23.2245 60.3288C23.3321 60.2566 23.4038 60.1845 23.4845 60.0898C23.7939 59.7202 23.368 60.198 23.1168 59.887C23.0586 59.7878 23.0003 59.6886 22.942 59.5894C22.9061 59.4632 22.933 59.7247 22.933 59.7202C22.9465 59.8238 22.9734 59.932 23.0272 60.0267C23.1303 60.2025 23.3186 60.3468 23.5114 60.4009C23.8746 60.5001 24.341 60.3603 24.4979 59.9907C24.6414 59.657 24.5965 59.2648 24.2558 59.0665C23.9733 58.8996 23.48 58.9718 23.3366 59.3099C23.35 59.2919 23.3635 59.2738 23.3814 59.2603C23.48 59.2017 23.5787 59.1431 23.6773 59.0845C23.8119 59.1251 23.9464 59.1656 24.0809 59.2062C24.1392 59.3054 24.1975 59.4046 24.2558 59.5038C24.2916 59.63 24.2647 59.3189 24.2558 59.2874C24.2199 59.1521 24.1571 59.0304 24.0674 58.9312C23.9015 58.7554 23.6863 58.6517 23.4442 58.6382C23.2245 58.6291 23.0227 58.6923 22.8433 58.8185C22.7581 58.8771 22.6864 58.9447 22.6191 59.0259C22.3411 59.3505 22.5339 59.0755 22.7402 59.1476C22.8971 59.4271 23.0541 59.7021 23.211 59.9816C23.3545 59.4993 23.5249 59.0304 23.7311 58.5705C23.8791 58.2369 23.8253 57.8447 23.489 57.6463C23.1931 57.4705 22.7088 57.5472 22.5608 57.8808Z" fill="#727272"/>
<path d="M21.0722 65.856C20.9287 66.6315 20.9287 67.3844 21.0811 68.1598C21.1574 68.543 21.5699 68.6873 21.9107 68.6332C22.1079 68.6016 22.2918 68.4889 22.4308 68.3401C22.4891 68.277 22.5429 68.2004 22.5922 68.1282C22.6191 68.0877 22.6415 68.0471 22.664 68.002C22.7043 67.9389 22.6909 67.9434 22.6146 68.0065C22.4936 68.0065 22.377 68.0065 22.2559 68.0065C22.2873 68.0155 22.3187 68.0245 22.3501 68.0336C22.2514 67.975 22.1528 67.9163 22.0541 67.8577C22.0048 67.754 22.0003 67.7586 22.0452 67.8713C22.0676 67.9254 22.09 67.9795 22.1124 68.0336C22.1842 68.1688 22.2828 68.277 22.4084 68.3582C22.7088 68.561 22.9823 68.5475 23.3052 68.3987C23.637 68.25 23.7177 67.7631 23.5473 67.4745C23.35 67.1319 22.9599 67.0823 22.6281 67.2311C22.6057 67.2401 22.5788 67.2536 22.5563 67.2626C22.7312 67.2401 22.9016 67.2176 23.0765 67.195C23.0496 67.186 23.0227 67.1815 22.9958 67.1725C23.0944 67.2311 23.1931 67.2897 23.2917 67.3483C23.3186 67.4385 23.3186 67.4475 23.2962 67.3799C23.2738 67.3077 23.2469 67.2401 23.2155 67.177C23.1751 67.1003 23.1303 67.0237 23.0675 66.9606C22.8792 66.7577 22.6191 66.663 22.3456 66.6901C22.1079 66.7126 21.8972 66.8298 21.7313 67.0012C21.6506 67.0823 21.5833 67.177 21.525 67.2762C21.5116 67.3032 21.4936 67.3303 21.4802 67.3573C21.395 67.4835 21.4174 67.47 21.5519 67.3212C21.8255 67.479 22.1035 67.6368 22.3815 67.7946C22.2783 67.2717 22.2739 66.7352 22.3725 66.2122C22.4398 65.8515 22.2739 65.4819 21.9017 65.3782C21.5699 65.2925 21.1394 65.4954 21.0722 65.856Z" fill="#727272"/>
<path d="M22.0317 75.6164C22.22 75.9951 22.4039 76.3738 22.5922 76.7525C22.7581 77.0861 23.211 77.1628 23.5114 76.996C23.7535 76.8607 23.9194 76.6443 23.9957 76.3738C24.0315 76.2521 24.054 76.0988 24.0405 75.9726C24.027 75.8283 24.0898 75.8689 24.0136 75.9365C23.915 75.9951 23.8163 76.0537 23.7177 76.1123C23.7087 76.1168 23.6997 76.1168 23.6908 76.1214C23.5787 76.0898 23.4666 76.0582 23.35 76.0312C23.5831 76.1664 23.6952 76.3828 24.036 76.3828C24.4396 76.3828 24.5293 76.1439 24.7714 75.905C24.6727 75.9636 24.5741 76.0222 24.4754 76.0808C24.3454 75.9996 24.2154 75.9185 24.0853 75.8328C24.1391 76.1935 24.592 76.3919 24.9149 76.3062C25.3005 76.198 25.4395 75.8373 25.3857 75.4722C25.3229 75.0664 24.9418 74.7644 24.5472 74.7238C24.0853 74.6787 23.7849 74.9312 23.5652 75.3099C23.6459 75.2287 23.7266 75.1476 23.8073 75.0664C23.7849 75.0844 23.758 75.1025 23.7356 75.1205C23.8477 75.089 23.9598 75.0574 24.0764 75.0303C24.054 75.0303 24.027 75.0303 24.0046 75.0303C24.1167 75.0619 24.2288 75.0935 24.3454 75.1205C24.2647 75.0754 24.054 74.8455 23.8746 74.7959C23.619 74.7238 23.35 74.7779 23.1392 74.9357C22.9509 75.0754 22.8209 75.2828 22.7536 75.5037C22.7088 75.6435 22.7581 75.9275 22.6864 76.0267C22.7671 75.9455 22.8478 75.8644 22.9285 75.7832C22.9016 75.7968 22.8747 75.8148 22.8433 75.8283C23.1482 75.9095 23.4576 75.9906 23.7625 76.0718C23.5742 75.6931 23.3903 75.3144 23.202 74.9357C22.8074 74.1512 21.6461 74.8365 22.0317 75.6164Z" fill="#727272"/>
<path d="M26.1838 85.6609C26.1614 86.2425 26.7623 86.5716 27.2689 86.4138C27.5111 86.3372 27.686 86.1659 27.8025 85.9495C27.8205 85.9134 27.8384 85.8728 27.8563 85.8368C27.955 85.679 27.8563 85.7241 27.5514 85.981C27.4124 85.963 27.4752 85.963 27.5739 86.0171C27.8922 86.1929 28.3092 86.0937 28.4931 85.7736C28.6724 85.4626 28.5693 85.0253 28.2509 84.8494C27.9191 84.6646 27.5425 84.5564 27.1748 84.7097C26.9865 84.7908 26.8295 84.9261 26.7219 85.1064C26.6905 85.156 26.6591 85.2146 26.6412 85.2732C26.6322 85.2913 26.6233 85.3093 26.6143 85.3273C26.8475 85.0658 27.0896 85.0433 27.3452 85.2597C27.4035 85.3589 27.4618 85.4581 27.5201 85.5572C27.5245 85.5933 27.529 85.6294 27.5335 85.6654C27.547 85.3093 27.2151 84.9712 26.8609 84.9892C26.4798 85.0027 26.1973 85.2822 26.1838 85.6609Z" fill="#727272"/>
<path d="M51.0383 52.1598C51.1191 52.5656 51.2581 52.9443 51.4329 53.3185C51.5988 53.6656 52.0517 53.7107 52.3521 53.5619C52.5225 53.4763 52.6615 53.323 52.7512 53.1562C52.7781 53.1066 52.796 53.0525 52.823 52.9984C52.9664 52.6873 52.8185 53.1562 52.4732 53.1201C52.3611 53.0885 52.249 53.057 52.1324 53.0299C52.0562 52.9939 52.2445 53.1156 52.2445 53.1156C52.3163 53.1697 52.3656 53.2012 52.4508 53.2373C52.6257 53.314 52.805 53.3275 52.9933 53.3004C53.3969 53.2328 53.6345 52.9713 53.787 52.6061C53.926 52.268 53.6345 51.8623 53.3162 51.7721C52.9306 51.6639 52.6301 51.9074 52.4867 52.2455C52.6436 51.9524 52.8409 51.8893 53.0741 52.0561C53.0561 52.0381 53.0382 52.0201 53.0158 52.0065C52.9306 51.9209 52.7691 51.8307 52.6526 51.7992C52.4373 51.7406 52.2042 51.7766 52.0158 51.8893C51.8589 51.984 51.7468 52.1328 51.6706 52.2951C51.6526 52.3357 51.6302 52.3807 51.6123 52.4258C51.563 52.5701 51.5899 52.4348 51.6706 52.3988C51.9755 52.4799 52.2849 52.5611 52.5898 52.6422C52.4642 52.3762 52.388 52.0967 52.3297 51.8082C52.2625 51.4475 51.832 51.2446 51.5002 51.3348C51.137 51.4295 50.9711 51.7992 51.0383 52.1598Z" fill="#727272"/>
<path d="M52.5987 59.9004C52.6839 60.3287 52.7736 60.757 52.8588 61.1853C53.0023 61.8931 53.9484 61.7624 54.1546 61.1853C54.2219 60.9914 54.3385 60.8652 54.4865 60.73C54.1322 60.6849 53.7825 60.6398 53.4282 60.5947C53.5448 60.8652 53.6659 61.1402 53.7825 61.4107C53.917 61.7218 54.4371 61.857 54.7017 61.6542C54.8631 61.5324 54.9931 61.4242 55.0963 61.2439C55.1321 61.1808 55.1725 61.1041 55.1949 61.032C55.2039 61.0005 55.2173 60.9689 55.2353 60.9418C55.3429 60.7435 55.1366 60.6804 54.612 60.7525C54.5627 61.1132 54.9573 61.4287 55.2846 61.4287C55.6881 61.4287 55.9079 61.1177 55.9572 60.7525C56.0334 60.189 55.5088 59.6795 54.9662 59.6795C54.6927 59.6795 54.4461 59.8012 54.2623 59.9951C54.1771 60.0853 54.1188 60.1845 54.0605 60.2927C54.0246 60.3648 53.8856 60.5902 54.0246 60.4865C54.3295 60.5677 54.6389 60.6488 54.9438 60.73C54.8272 60.4595 54.7062 60.1845 54.5896 59.914C54.4057 59.4902 53.8183 59.5172 53.5314 59.7787C53.2085 60.0717 53.0023 60.4234 52.8543 60.8291C53.2848 60.8291 53.7197 60.8291 54.1502 60.8291C54.065 60.4009 53.9753 59.9726 53.8901 59.5443C53.7242 58.6877 52.4238 59.0484 52.5987 59.9004Z" fill="#727272"/>
<path d="M53.778 70.2425C53.7376 70.5806 53.778 70.9278 53.8677 71.2524C53.9798 71.6446 54.4909 71.9106 54.8541 71.6581C55.0918 71.4913 55.2353 71.311 55.3384 71.0405C55.3653 70.9729 55.3877 70.9007 55.4101 70.8286C55.4505 70.6843 55.4101 70.8782 55.2936 70.8962C55.1725 70.8962 55.0559 70.8962 54.9349 70.8962C54.8228 70.8511 54.751 70.7835 54.7331 70.6843C54.7196 70.6393 54.7241 70.6528 54.751 70.7249C54.7645 70.7655 54.7779 70.8106 54.7914 70.8511C54.8676 71.0585 54.9752 71.2253 55.1456 71.3651C55.5133 71.6626 55.9303 71.613 56.289 71.3335C56.576 71.1081 56.5222 70.6122 56.289 70.3778C56.0065 70.0937 55.6254 70.1524 55.3384 70.3778C55.325 70.3913 55.307 70.4003 55.2936 70.4138C55.3922 70.3552 55.4909 70.2966 55.5895 70.238C55.5716 70.2425 55.5536 70.247 55.5357 70.2515C55.6568 70.2515 55.7733 70.2515 55.8944 70.2515C55.9751 70.2651 56.0917 70.513 56.0424 70.3642C56.0065 70.247 55.9617 70.1253 55.8989 70.0216C55.7106 69.7151 55.3788 69.5392 55.0245 69.5753C54.7107 69.6069 54.4551 69.8052 54.2847 70.0667C54.2129 70.1794 54.1636 70.3056 54.1233 70.4319C54.1098 70.4724 54.0829 70.5311 54.0784 70.5716C54.0739 70.6302 54.065 70.5581 54.1771 70.4815C54.5044 70.6167 54.8362 70.752 55.1635 70.8872C55.1008 70.6663 55.0918 70.4679 55.1187 70.238C55.159 69.8728 54.7779 69.5618 54.4461 69.5618C54.056 69.5663 53.8228 69.8773 53.778 70.2425Z" fill="#727272"/>
<path d="M53.4058 78.2042C53.37 78.646 53.4058 79.0788 53.4731 79.5161C53.5538 80.0256 54.2757 80.1563 54.5986 79.8137C54.7151 79.692 54.8362 79.5702 54.9617 79.4575C55.0738 79.3583 55.1904 79.2592 55.2801 79.196C54.9528 79.0608 54.621 78.9255 54.2936 78.7903C54.334 78.9075 54.334 78.7723 54.3205 78.8985C54.3295 78.8038 54.2667 78.9841 54.3116 78.9075C54.1367 79.2276 54.2354 79.6469 54.5537 79.8317C54.8631 80.012 55.298 79.9129 55.4729 79.5883C55.6657 79.2321 55.7285 78.8173 55.594 78.4296C55.464 78.0599 54.9797 77.7489 54.6075 78.0239C54.2667 78.2763 53.9484 78.5468 53.6569 78.8534C54.0336 78.9526 54.4057 79.0518 54.7824 79.151C54.7376 78.8579 54.7376 78.5153 54.76 78.1952C54.7869 77.8435 54.4326 77.5054 54.0874 77.5189C53.6928 77.546 53.4372 77.8255 53.4058 78.2042Z" fill="#727272"/>
<path d="M52.9754 87.0361C52.7333 87.4464 52.5494 87.8972 52.4463 88.3661C52.3656 88.7222 52.5539 89.0964 52.9171 89.2001C53.2937 89.3038 53.6166 89.0739 53.7466 88.7267C53.787 88.614 53.9215 88.3706 53.9932 88.2759C53.6749 88.2759 53.361 88.2759 53.0426 88.2759C52.9619 88.1767 52.9395 88.0685 52.9709 87.9423C52.9126 88.3029 53.0651 88.6681 53.4417 88.7763C53.7646 88.8665 54.2085 88.6681 54.2712 88.303C54.334 87.9288 54.2668 87.5997 53.9977 87.3201C53.7646 87.0767 53.2713 87.0361 53.0471 87.3201C52.7871 87.6447 52.5987 87.9738 52.4508 88.3661C52.8812 88.4878 53.3162 88.605 53.7466 88.7267C53.8318 88.348 53.9439 88.0505 54.1412 87.7214C54.3251 87.4058 54.213 86.9775 53.8991 86.7972C53.5807 86.6078 53.1637 86.7205 52.9754 87.0361Z" fill="#727272"/>
<path d="M57.8987 89.7365C57.6207 90.1017 57.4907 90.5525 57.4683 91.0079C57.4548 91.2739 57.6476 91.5309 57.8808 91.6255C58.1453 91.7337 58.4009 91.6706 58.6161 91.4858C58.948 91.2017 59.2798 90.9132 59.6116 90.6292C59.2573 90.5841 58.9076 90.539 58.5534 90.4939C58.5265 90.4534 58.5399 90.3948 58.5444 90.3497C58.5489 90.3181 58.6206 90.2099 58.5489 90.3226C58.3561 90.6337 58.4816 91.0665 58.791 91.2468C59.1139 91.4362 59.5174 91.3145 59.7102 91.0034C59.9389 90.6382 59.9344 90.1739 59.7147 89.8042C59.4771 89.4074 58.9883 89.3849 58.6565 89.6689C58.3247 89.9529 57.9929 90.2415 57.6611 90.5255C58.0422 90.6833 58.4278 90.8456 58.809 91.0034C58.8179 90.8005 58.7731 91.0935 58.8179 90.8997C58.8359 90.8321 58.8538 90.7599 58.8762 90.6923C58.8403 90.787 58.93 90.5976 58.93 90.5931C58.9659 90.53 59.0062 90.4714 59.0511 90.4173C59.2708 90.1243 59.0959 89.6599 58.809 89.4931C58.4727 89.2902 58.1229 89.4435 57.8987 89.7365Z" fill="#727272"/>
<path d="M60.3828 80.8822C60.2886 81.3961 60.2348 81.9146 60.2303 82.442C60.2214 83.1047 61.1585 83.3752 61.4859 82.7847C61.6876 82.415 61.9253 82.0949 62.2212 81.7973C61.9477 81.8334 61.6787 81.8695 61.4051 81.901C61.3917 81.892 61.3738 81.8785 61.3603 81.8695C61.302 81.7703 61.2437 81.6711 61.1854 81.5719C61.172 81.5313 61.2168 81.4051 61.172 81.5494C61.1406 81.6395 61.1227 81.7838 61.1182 81.8695C61.1092 82.0859 61.172 82.2978 61.2975 82.4736C61.441 82.6674 61.6787 82.7982 61.9253 82.7982C62.0598 82.7982 62.2167 82.7576 62.3333 82.6945C62.3557 82.681 62.3737 82.6719 62.3961 82.6584C62.5037 82.5908 62.4723 82.5863 62.3019 82.6449C62.1898 82.6133 62.0777 82.5818 61.9612 82.5547C61.7818 82.4646 61.7683 82.3609 61.7863 82.2301C61.737 82.5908 61.876 82.956 62.2571 83.0642C62.571 83.1498 63.0328 82.956 63.0866 82.5908C63.1404 82.2031 63.1225 81.8109 62.8266 81.5178C62.6786 81.3736 62.4544 81.2879 62.2481 81.2924C62.1136 81.2969 61.9567 81.342 61.8401 81.4051C61.8087 81.4231 61.6607 81.4863 61.7459 81.4682C61.867 81.4682 61.9836 81.4682 62.1046 81.4682C62.0867 81.4637 62.0643 81.4547 62.0463 81.4502C62.145 81.5088 62.2436 81.5674 62.3423 81.626C62.3871 82.0002 62.4275 82.0949 62.4678 81.91C62.4858 81.865 62.4947 81.8199 62.5037 81.7703C62.5261 81.6666 62.5351 81.5584 62.5261 81.4502C62.5082 81.1527 62.3557 80.8686 62.0822 80.7379C61.8132 80.6026 61.4903 80.6207 61.2661 80.8416C60.894 81.2158 60.5756 81.6395 60.32 82.0994C60.737 82.2121 61.154 82.3248 61.5755 82.442C61.58 82.0408 61.6114 81.6395 61.6831 81.2428C61.7459 80.8822 61.5845 80.5125 61.2123 80.4088C60.8805 80.3186 60.4456 80.5215 60.3828 80.8822Z" fill="#727272"/>
<path d="M61.2886 71.5726C61.0958 72.037 61.0913 72.5644 61.2392 73.0423C61.4455 73.7005 62.3154 73.669 62.5351 73.0423C62.6472 72.7177 62.849 72.4607 63.1046 72.2353C62.7234 72.0775 62.3378 71.9152 61.9567 71.7574C61.9701 71.9874 61.9881 72.2173 62.0015 72.4427C62.0284 72.8394 62.2885 73.0739 62.6741 73.119C62.8893 73.146 63.0866 73.0739 63.266 72.9567C63.3422 72.9071 63.4095 72.8485 63.4678 72.7808C63.4902 72.7493 63.5171 72.7222 63.5395 72.6952C63.6202 72.6095 63.553 72.6276 63.3332 72.7493C63.2211 72.7177 63.109 72.6862 62.9925 72.6591C62.9566 72.6185 62.9162 72.578 62.8804 72.5374C62.849 72.4247 62.8176 72.312 62.7907 72.1948C62.7907 72.2128 62.7907 72.2308 62.7952 72.2489C62.8266 72.1361 62.8579 72.0234 62.8849 71.9062C62.8759 71.9197 62.8669 71.9378 62.8579 71.9513C62.4006 72.6952 63.5664 73.3759 64.0193 72.6321C64.2883 72.1948 64.0641 71.6267 63.5933 71.4554C63.3467 71.3652 63.0956 71.3833 62.8669 71.5095C62.7728 71.5591 62.692 71.6312 62.6158 71.7079C62.5979 71.7259 62.5844 71.7484 62.5665 71.7665C62.4768 71.8566 62.5127 71.8566 62.6741 71.7665C62.8983 71.9919 63.1225 72.2173 63.3467 72.4427C63.3332 72.2128 63.3153 71.9829 63.3019 71.7574C63.2615 71.1578 62.6024 70.8828 62.154 71.2796C61.7235 71.6628 61.4276 72.1407 61.2392 72.6817C61.6697 72.6817 62.1046 72.6817 62.5351 72.6817C62.4499 72.4066 62.4768 72.1948 62.5844 71.9333C62.7234 71.5951 62.432 71.1894 62.1136 71.0992C61.728 70.991 61.4276 71.2345 61.2886 71.5726Z" fill="#727272"/>
<path d="M60.7281 59.7199C60.764 60.0986 60.8043 60.4819 60.8402 60.8606C60.8716 61.1942 61.0689 61.4827 61.4231 61.5233C61.746 61.5638 62.0778 61.37 62.163 61.0409C62.2347 60.7524 62.3334 60.4909 62.4769 60.2339C62.0912 60.2339 61.7011 60.2339 61.3155 60.2339C61.3828 60.3601 61.45 60.4864 61.5128 60.6081C61.7594 61.0724 62.4141 61.0183 62.6741 60.6081C62.6966 60.572 62.728 60.5405 62.728 60.5269C62.7997 60.4638 62.7504 60.4683 62.589 60.5405C62.5172 60.581 62.4455 60.5901 62.3737 60.5765C62.293 60.4954 62.2123 60.4142 62.1316 60.3331C62.1271 60.315 62.1226 60.297 62.1181 60.279C62.3782 61.104 63.6786 60.7524 63.414 59.9183C63.2795 59.4945 62.9118 59.2285 62.4634 59.2421C62.0285 59.2556 61.7236 59.5802 61.5083 59.9228C61.8939 59.9228 62.284 59.9228 62.6697 59.9228C62.6024 59.7966 62.5351 59.6704 62.4724 59.5486C62.2392 59.1068 61.5487 59.1113 61.311 59.5486C61.1182 59.9048 60.9658 60.2835 60.8626 60.6802C61.3021 60.7388 61.7415 60.8019 62.1854 60.8606C62.1495 60.4819 62.1092 60.0986 62.0733 59.7199C62.0374 59.3548 61.7908 59.0437 61.4007 59.0437C61.0644 59.0437 60.6922 59.3548 60.7281 59.7199Z" fill="#727272"/>
<path d="M57.3965 52.1596C57.5669 52.5924 57.7776 52.9531 58.0736 53.3138C58.4144 53.7285 59.0556 53.458 59.199 53.0162C59.3022 52.6916 59.347 52.34 59.3156 52.0019C58.8986 52.1146 58.4816 52.2273 58.0601 52.3445C58.1902 52.597 58.374 52.8269 58.5937 53.0072C58.8762 53.2371 59.2708 53.2822 59.5443 53.0072C59.782 52.7683 59.8268 52.2814 59.5443 52.0514C59.4636 51.9883 59.3874 51.9162 59.3246 51.8396C59.2573 51.7539 59.3649 51.9072 59.3067 51.8125C59.2753 51.7629 59.2484 51.7133 59.2215 51.6637C59.0825 51.3932 58.7372 51.2715 58.4592 51.3482C58.1946 51.4203 57.9391 51.7088 57.966 52.0019C57.9929 52.2859 57.9839 52.3986 57.8987 52.6556C58.2754 52.5564 58.6475 52.4572 59.0242 52.358C58.9659 52.2904 58.9076 52.2047 58.8403 52.0875C58.8089 52.0334 58.7776 51.9748 58.7462 51.9207C58.7372 51.9072 58.6655 51.7359 58.6879 51.8035C58.5534 51.4654 58.2395 51.2264 57.8583 51.3301C57.5445 51.4158 57.262 51.817 57.3965 52.1596Z" fill="#727272"/>
<path d="M64.1897 51.6367C64.2435 51.9207 64.3511 52.1957 64.4991 52.4482C64.6515 52.7052 64.9699 52.8404 65.2569 52.7593C65.5618 52.6736 65.7232 52.4076 65.7501 52.1056C65.7815 51.79 65.8129 51.4699 65.8443 51.1543C65.508 51.3482 65.1717 51.542 64.8309 51.7404C65.0372 51.8937 65.2434 52.0515 65.4497 52.2047C65.7411 52.4211 66.203 52.2543 66.3689 51.9613C66.5707 51.6187 66.4182 51.2535 66.1267 51.0371C65.9205 50.8838 65.7142 50.726 65.508 50.5727C65.3196 50.433 65.0192 50.46 64.8309 50.5727C64.6112 50.7035 64.5215 50.9109 64.4991 51.1588C64.4677 51.4744 64.4363 51.7945 64.4049 52.1101C64.8219 51.9974 65.2389 51.8846 65.6604 51.7674C65.5528 51.5871 65.5259 51.5014 65.4855 51.2805C65.4183 50.9199 64.9878 50.717 64.656 50.8072C64.2883 50.9063 64.1269 51.276 64.1897 51.6367Z" fill="#727272"/>
<path d="M67.176 59.7516C67.2388 60.1258 67.3285 60.4865 67.4495 60.8471C67.5885 61.2754 68.0369 61.4558 68.436 61.2529C68.6826 61.1267 68.8395 60.8922 68.9023 60.6262C68.9337 60.5045 68.9382 60.3738 68.9471 60.243C68.9471 60.1979 68.9516 60.1529 68.9561 60.1078C68.9472 60.2971 68.8216 60.4189 68.575 60.482C68.4629 60.4504 68.3508 60.4189 68.2342 60.3918C68.7633 60.6533 69.1758 60.8291 69.7812 60.6939C70.6241 60.5045 70.2699 59.1971 69.4224 59.391C69.2117 59.4405 69.0906 59.3143 68.9113 59.2242C68.5974 59.0709 68.2387 59.0934 67.9652 59.3098C67.7589 59.4721 67.6647 59.6975 67.6289 59.9545C67.6154 60.0537 67.6109 60.1484 67.602 60.2475C67.593 60.3332 67.5975 60.3377 67.6065 60.2701C67.5616 60.4234 67.6109 60.3602 67.7589 60.0897C68.0862 60.225 68.418 60.3602 68.7454 60.4955C68.6288 60.1348 68.5391 59.7742 68.4719 59.4C68.4091 59.0393 67.9697 58.8364 67.6423 58.9266C67.2657 59.0213 67.1132 59.391 67.176 59.7516Z" fill="#727272"/>
<path d="M68.7409 69.5347C68.6961 69.8774 68.6468 70.22 68.6019 70.5626C68.5616 70.8647 68.6288 71.1622 68.9113 71.3245C69.1445 71.4643 69.548 71.4508 69.7274 71.2208C69.826 71.0901 69.9247 70.9819 70.0816 70.9278C69.7991 70.7114 69.5121 70.495 69.2297 70.2741C69.2386 70.5446 69.2431 70.8151 69.2521 71.0856C69.2655 71.5364 69.6691 71.843 70.104 71.7393C70.3193 71.6897 70.4986 71.5815 70.669 71.4463L70.8349 71.3155C70.8215 71.2975 70.6062 71.311 70.5569 71.2569C70.4986 71.1577 70.4403 71.0585 70.382 70.9594C70.391 70.9819 70.3955 71.0044 70.4045 71.027C70.6869 71.843 71.9873 71.4913 71.7003 70.6663C71.5434 70.22 71.1847 69.9675 70.7094 69.9811C70.5166 69.9856 70.3148 70.0487 70.1489 70.1479C70.0144 70.229 69.8888 70.3958 69.7363 70.4319C70.0188 70.6483 70.3058 70.8647 70.5883 71.0856C70.5793 70.8151 70.5748 70.5446 70.5659 70.2741C70.5569 69.8593 70.1399 69.4761 69.7139 69.6204C69.3418 69.7511 69.0099 69.9495 68.7678 70.2651C69.1445 70.486 69.5166 70.7024 69.8933 70.9233C69.9381 70.5807 69.9874 70.238 70.0323 69.8954C70.0816 69.5347 69.9471 69.1696 69.5615 69.0614C69.2566 68.9757 68.7902 69.1696 68.7409 69.5347Z" fill="#727272"/>
<path d="M66.8083 80.7333C66.7141 81.1165 66.62 81.4998 66.5303 81.883C66.4451 82.2346 66.6379 82.6223 67.0011 82.717C67.324 82.8027 67.6333 82.7395 67.8979 82.5276C68.1086 82.3563 68.1849 82.0903 68.3777 81.9235C68.279 81.9821 68.1804 82.0408 68.0817 82.0994C68.1131 82.0858 68.1445 82.0723 68.1804 82.0588C68.0593 82.0588 67.9427 82.0588 67.8217 82.0588C67.8531 82.0633 67.8844 82.0723 67.9203 82.0768C67.7858 81.9731 67.6513 81.8694 67.5168 81.7657C67.5078 81.7116 67.5123 81.7252 67.5257 81.8153C67.5571 81.892 67.5885 81.9686 67.6244 82.0453C67.7141 82.194 67.8531 82.2977 68.0055 82.3654C68.1669 82.4375 68.3463 82.4465 68.5212 82.4104C68.5795 82.4059 68.6377 82.3879 68.6916 82.3654C68.9561 82.2797 68.9023 82.2526 68.5301 82.2887C68.4494 82.2076 68.3687 82.1264 68.288 82.0453C68.297 82.0588 68.3104 82.0768 68.3194 82.0903C68.288 81.9776 68.2566 81.8649 68.2297 81.7477C68.2297 81.7657 68.2297 81.7883 68.2252 81.8063C68.1849 82.6764 69.53 82.6764 69.5704 81.8063C69.5883 81.4366 69.3372 81.1256 68.992 81.0174C68.8306 80.9678 68.6512 80.9633 68.4853 81.0038C68.427 81.0174 68.1983 81.0624 68.2656 81.0715C68.3777 81.103 68.4898 81.1346 68.6064 81.1616C68.5839 81.1481 68.566 81.1301 68.5436 81.1165C68.6243 81.1977 68.705 81.2788 68.7857 81.36C68.7543 81.2969 68.6826 81.0579 68.5705 80.9407C68.3911 80.7604 68.0638 80.6792 67.8217 80.7469C67.6244 80.801 67.454 80.9182 67.3195 81.067C67.2477 81.1481 67.185 81.2383 67.1311 81.3329C67.1132 81.3645 67.0998 81.3961 67.0818 81.4231C66.9563 81.5944 67.0504 81.5899 67.3643 81.4051C67.5213 81.6846 67.6782 81.9596 67.8351 82.2391C67.9293 81.8559 68.0234 81.4727 68.1131 81.0895C68.3104 80.2464 67.0146 79.8858 66.8083 80.7333Z" fill="#727272"/>
<path d="M65.3824 88.8664C65.4811 88.943 65.5797 89.0196 65.6784 89.0963C65.9653 89.3217 66.4317 89.1414 66.5976 88.8528C66.7994 88.5057 66.6469 88.1495 66.3555 87.9286C66.2568 87.852 66.1582 87.7753 66.0595 87.6987C65.7725 87.4733 65.3062 87.6536 65.1403 87.9422C64.9385 88.2893 65.0955 88.6409 65.3824 88.8664Z" fill="#727272"/>
<circle cx="43" cy="62" r="37" fill="#46A358" fill-opacity="0.13"/>
<path d="M37.2966 47.7272C37.8557 43.0952 34.6227 39.6367 31.1777 36.9695C29.1711 35.4137 27.2096 34.1156 25.9019 31.8885C25.2346 30.7461 24.5943 29.457 24.22 28.1901C23.4895 25.7229 24.7521 21.8466 27.8769 24.6916C29.6761 26.3319 30.0909 28.4479 31.4662 30.2705C32.2418 31.3018 33.4322 31.853 34.6723 31.1951C38.4013 29.2214 35.5155 22.3756 34.6813 19.6551C33.6712 16.3611 33.1391 13.1916 34.8391 10.0221C35.3982 8.98189 36.025 7.91058 36.742 6.97262C37.2064 6.36806 37.7971 5.7146 38.46 5.29674C39.8307 4.42546 40.6559 4.42546 42.171 4.88777C43.7853 5.3812 43.7988 5.46566 44.128 6.99484C44.2813 7.70165 44.3444 8.47958 44.3805 9.20861C44.4571 10.7511 44.3309 12.307 44.0107 13.8228C43.411 16.6989 41.684 19.2417 41.3052 22.1622C41.0257 24.3093 41.2196 31.1328 44.8089 30.4927C49.0159 29.7415 48.7138 23.0824 52.9073 22.1933C56.3974 21.451 58.1019 25.2339 56.6229 27.83C55.8202 29.2436 54.4855 30.3371 53.2004 31.3018C50.9098 33.0221 48.1096 33.92 45.8595 35.6582C41.7877 38.8143 43.1405 43.7753 44.8134 47.8427C45.138 48.6296 46.4457 48.2828 46.1165 47.4871C44.9892 44.7444 43.5734 41.3882 45.0974 38.5076C46.5088 35.8404 50.2334 34.9069 52.6368 33.3333C55.8834 31.2084 60.5413 27.2076 57.7908 22.9979C55.4911 19.4728 51.036 20.6508 48.9347 23.6025C48.299 24.496 47.8075 25.4784 47.2438 26.4164C46.9868 26.8431 46.7298 27.2743 46.4277 27.6744C46.2112 27.9322 45.9948 28.1856 45.7783 28.4434C44.0694 28.8168 43.1856 28.3679 43.1269 27.0876C41.4135 23.4958 43.4877 19.8151 44.651 16.5033C45.5168 14.0407 45.8866 11.4179 45.7017 8.81742C45.5754 7.01707 45.386 4.58104 43.668 3.50528C42.1575 2.55843 39.8353 3.10076 38.3517 3.83868C36.1422 4.94111 34.7895 7.27934 33.6712 9.35975C30.7989 14.703 33.6983 19.4106 34.7669 24.7938C34.9067 25.5095 35.263 27.0787 35.024 27.8744C34.2935 28.5323 33.563 29.1858 32.828 29.8437C32.4087 29.3147 32.093 28.7368 31.8721 28.1011C31.4482 27.1721 31.0018 26.3052 30.384 25.4784C29.4101 24.1715 27.5703 22.0244 25.69 22.1311C23.8638 22.2378 22.7906 24.1404 22.5967 25.7274C22.3081 28.0745 23.5842 30.5772 24.7386 32.5687C27.9401 38.0853 36.8637 40.1168 35.9438 47.736C35.8446 48.5762 37.1974 48.5718 37.2966 47.7272Z" fill="#46A358"/>
<path d="M48.9843 25.5628C49.9583 20.6952 48.1186 16.2454 47.7353 11.4401C47.5053 8.56839 48.7453 3.97639 52.6863 5.28331C55.6218 6.25683 56.7356 9.70639 56.5372 12.4669C56.3929 14.4851 55.4099 20.4062 59.3509 19.855C62.7328 19.3838 64.4778 13.8272 66.1191 11.4712C67.526 9.45301 70.6328 6.50577 73.3654 7.32815C77.6942 8.63063 74.921 13.7516 72.928 15.7653C69.5687 19.1571 65.9884 22.1577 63.0259 25.9362C61.3079 28.1277 59.8198 31.7284 63.6301 32.7108C65.0956 33.0887 66.5069 32.5864 67.8281 31.9907C68.8923 31.5106 69.9068 30.9372 71.0386 30.6215C73.1038 30.0436 75.4982 30.4971 74.1319 33.0264C70.9349 38.952 63.6166 34.5823 58.8955 37.0672C54.8913 39.1787 53.9579 43.8463 54.3367 47.9404C54.4134 48.7895 55.7706 48.7984 55.6894 47.9404C55.4234 45.0866 55.6534 42.0015 57.6554 39.7389C60.2437 36.8138 63.6977 37.8807 67.1247 37.814C70.6238 37.7474 75.1285 36.0759 75.8544 32.2218C76.648 27.9988 71.7691 28.8167 69.2665 29.8347C68.1618 30.2837 67.1292 30.9816 65.9749 31.3106C65.0595 31.5728 63.612 31.7151 62.8906 30.866C62.1917 30.0392 62.7553 28.6478 63.1882 27.9455C64.7709 25.3672 67.1968 23.0156 69.3522 20.8952C72.3238 17.9702 77.3921 14.8674 76.9547 10.0976C76.621 6.44798 73.203 5.10995 70.0511 6.4791C68.1573 7.30148 66.5926 8.6084 65.3571 10.2398C63.7428 12.3691 62.8816 15.2941 60.9561 17.1701C60.2617 17.8457 59.5809 19.2816 58.0297 17.8724C57.3398 17.2456 57.5472 15.5742 57.6194 14.7162C57.7141 13.5916 57.9576 12.4936 57.9215 11.36C57.8629 9.44412 57.2181 7.50152 55.96 6.01679C53.2996 2.8873 48.7318 3.0251 46.9642 6.9503C45.9091 9.29742 46.3735 11.9824 46.8154 14.4184C47.4647 18.0147 48.4162 21.5442 47.6812 25.2072C47.5143 26.0473 48.8175 26.4074 48.9843 25.5628Z" fill="#46A358"/>
<path d="M48.6822 33.9956C48.0464 38.5787 47.0048 43.0685 45.5529 47.4693C45.2823 48.2873 46.59 48.6384 46.856 47.8249C48.308 43.4241 49.3496 38.9343 49.9854 34.3512C50.1026 33.5066 48.7995 33.1466 48.6822 33.9956Z" fill="#46A358"/>
<path d="M32.5033 46.9625C32.3275 43.433 29.8429 41.0503 26.9841 39.2366C25.1308 38.0586 23.1017 37.0762 21.51 35.5425C20.8246 34.8846 19.5485 33.6088 19.4809 32.5864C19.2509 29.1769 23.476 31.8307 24.4139 32.6175C25.0722 33.1732 26.0327 32.2308 25.3698 31.6751C23.8953 30.4349 21.2484 28.8212 19.2238 29.7548C17.5915 30.506 17.8621 32.3686 18.4888 33.7111C21.1267 39.4144 30.8034 40.0679 31.1506 46.9625C31.1912 47.816 32.5484 47.8205 32.5033 46.9625Z" fill="#46A358"/>
<path d="M62.8365 48.2828C64.5229 45.7756 66.746 43.7263 69.4695 42.3483C71.9495 41.0947 75.0248 40.8769 77.2207 39.1032C79.7414 37.0673 79.8721 32.0752 75.7012 32.2041C74.8309 32.2308 74.8309 33.5644 75.7012 33.5377C77.347 33.76 78.0144 34.6579 77.7122 36.2271C77.3741 37.1295 76.8014 37.8408 75.9943 38.3564C75.0067 39.0454 73.8073 39.361 72.671 39.7167C71.2236 40.1701 69.8122 40.6457 68.473 41.357C65.6863 42.8417 63.4092 45.0199 61.6641 47.6115C61.1816 48.3272 62.354 48.994 62.8365 48.2828Z" fill="#46A358"/>
<path d="M66.5115 36.5516C60.7803 37.6185 58.6655 43.2418 57.3083 48.1627C57.0783 48.994 58.386 49.3452 58.6114 48.5184C59.8469 44.0419 61.628 38.8143 66.8722 37.8407C67.7244 37.6763 67.3637 36.3916 66.5115 36.5516Z" fill="#46A358"/>
<path d="M36.291 16.2545C35.6192 13.5917 36.4579 10.6756 38.6313 8.88859C39.0687 8.51074 39.5647 8.22179 40.1103 8.02175C41.6119 8.33737 42.3108 9.12863 42.2071 10.3955C42.2341 11.1335 42.0898 11.8625 41.914 12.5737C41.5578 14.0096 40.931 15.3743 40.4665 16.779C39.2716 20.3975 37.5536 26.3142 40.7822 29.3948C41.0933 29.6926 41.5758 29.2214 41.2602 28.9236C38.4284 26.2253 39.8803 21.0376 40.8498 17.8059C41.6885 15.0053 43.9657 11.2846 42.428 8.34181C41.2286 6.04804 38.478 7.91062 37.3101 9.2531C35.5831 11.2402 35.0014 13.9118 35.6372 16.4323C35.7454 16.8501 36.3948 16.6723 36.291 16.2545Z" fill="#46A358"/>
<path d="M50.5851 27.052C50.9729 26.203 51.7575 25.0027 52.8081 24.8605C54.4089 24.6427 55.2341 26.6253 54.3773 27.9366C53.5702 29.1724 52.0325 30.0348 50.7069 30.5638C48.5019 31.4395 47.0229 32.6487 45.4221 34.3779C45.129 34.6935 45.607 35.1691 45.9001 34.8491C46.8696 33.7955 47.8616 32.702 49.1241 31.973C50.1297 31.3906 51.2976 31.1639 52.3076 30.5949C53.5386 29.897 55.5317 28.3901 55.676 26.8698C55.7932 25.6429 54.481 24.2204 53.2545 24.1448C51.7755 24.0514 50.54 25.5451 50.0034 26.7186C49.8231 27.1009 50.4092 27.4432 50.5851 27.052Z" fill="#46A358"/>
<path d="M25.2977 27.8256C25.4465 26.6564 25.8929 26.2252 26.6324 26.5409C26.8939 26.5453 27.1104 26.6387 27.2907 26.8209C27.647 27.0521 27.8814 27.3944 28.0934 27.7544C28.4721 28.399 28.648 29.1503 28.9276 29.8348C29.2838 30.715 29.7527 31.4307 30.5599 31.9552C30.9251 32.1953 31.2633 31.6174 30.9026 31.3774C28.9185 30.0793 29.4732 26.7098 26.9931 25.8919C25.5051 25.4029 24.0081 26.6742 24.716 28.159C24.9009 28.5501 25.4826 28.2123 25.2977 27.8256Z" fill="#46A358"/>
<path d="M49.5299 10.5734C49.1782 8.65304 51.2299 7.12386 52.7991 8.52413C53.6649 9.29761 53.9985 10.7201 54.003 11.8314C54.0121 13.3384 53.3131 14.6853 53.6107 16.1967C53.6919 16.619 54.3457 16.4412 54.2646 16.0189C53.8903 14.1208 54.9635 12.3026 54.481 10.3334C54.1924 9.15536 53.6062 7.844 52.3707 7.39947C50.1432 6.60376 48.5064 8.72861 48.8761 10.7468C48.9573 11.1691 49.6066 10.9913 49.5299 10.5734Z" fill="#46A358"/>
<path d="M49.1918 14.9698C50.292 17.2502 50.8331 19.2506 50.7519 21.78C50.7384 22.2112 51.4148 22.2067 51.4283 21.78C51.514 19.1217 50.9278 17.0191 49.778 14.6364C49.5886 14.2496 49.0069 14.5875 49.1918 14.9698Z" fill="#46A358"/>
<path d="M66.7324 13.0627C67.3862 11.5913 68.6217 10.6622 70.0511 9.96429C70.4615 9.75092 70.8853 9.57755 71.3272 9.43975C73.2346 10.0799 73.7171 10.9645 72.7747 12.1025C72.3238 12.8004 71.6699 13.4272 71.1063 14.0406C68.9599 16.3744 66.6422 18.5348 64.1937 20.553C63.86 20.8286 64.338 21.2998 64.6717 21.0242C66.8857 19.2016 68.9915 17.2635 70.9575 15.1831C72.1389 13.9339 74.407 12.0803 73.911 10.1065C72.9235 6.19468 66.9759 10.8578 66.1462 12.7293C65.9748 13.116 66.561 13.4539 66.7324 13.0627Z" fill="#46A358"/>
<path d="M62.9131 22.9756C60.7532 24.5403 59.441 26.8208 59.193 29.448C59.1525 29.8747 59.8288 29.8703 59.8694 29.448C60.0949 27.0742 61.3033 24.9626 63.2558 23.549C63.603 23.3001 63.2648 22.7178 62.9131 22.9756Z" fill="#46A358"/>
<path d="M67.1924 34.0979C67.6343 33.8356 68.0762 33.56 68.5406 33.3333C68.8923 33.1422 69.2621 32.9955 69.6499 32.8932C70.3758 32.5954 70.6193 33.1511 70.3758 34.5602C69.8979 35.4893 67.3096 35.5248 66.507 35.4759C64.5004 35.3604 62.611 34.818 60.6315 35.4182C60.2167 35.5426 60.3925 36.1872 60.8119 36.0627C63.1882 35.3381 65.5014 36.3917 67.9003 36.1294C69.2035 35.9827 71.0477 35.3915 71.697 34.1468C72.0578 33.4533 71.9721 32.5376 71.183 32.1598C69.8888 31.5419 67.8687 32.911 66.8497 33.52C66.4799 33.7467 66.8181 34.3246 67.1924 34.0979Z" fill="#46A358"/>
<path d="M57.1369 36.5784C53.6197 39.3923 52.3391 43.6597 51.9829 47.9628C51.9468 48.3895 52.6232 48.3895 52.6593 47.9628C53.002 43.8242 54.233 39.7523 57.6148 37.0496C57.953 36.7784 57.4706 36.3117 57.1369 36.5784Z" fill="#46A358"/>
<path d="M41.9996 37.7118C40.9535 39.4988 40.985 41.4458 41.215 43.4462C41.4089 45.1266 41.6298 46.7758 42.8067 48.0827C43.0953 48.4027 43.5733 47.9315 43.2847 47.6115C42.1304 46.3312 41.9861 44.5531 41.8328 42.9172C41.6704 41.2147 41.693 39.5655 42.5858 38.0452C42.8022 37.6762 42.2205 37.3428 41.9996 37.7118Z" fill="#46A358"/>
<path d="M23.3407 33.3198C21.3837 33.3465 22.1593 35.378 23.2054 36.1071C24.5131 37.0183 26.0011 37.6273 27.3899 38.3964C29.0268 39.3032 29.6851 40.8324 30.9432 42.1082C31.2453 42.4149 31.7233 41.9437 31.4211 41.637C30.1721 40.3701 29.5679 38.8542 27.9581 37.9474C27.1464 37.4895 26.2942 37.1028 25.4781 36.6627C25.0542 36.436 24.6303 36.2093 24.2245 35.9559C24.0622 35.8581 23.8953 35.7559 23.733 35.6581C22.9259 35.3558 22.7996 34.8001 23.3452 33.9911C23.7736 33.9822 23.7736 33.3154 23.3407 33.3198Z" fill="#46A358"/>
<path d="M74.2357 36.3918C74.2582 37.2808 73.8434 37.7653 72.9821 37.8498C72.5673 38.0143 72.157 38.1743 71.7421 38.3388C71.1244 38.5833 70.5021 38.8278 69.8843 39.0723C68.4414 39.6413 66.994 40.2147 65.551 40.7837C65.1497 40.9393 65.3256 41.5883 65.7314 41.4283C67.3817 40.7748 69.0321 40.1258 70.6825 39.4723C71.9044 38.9878 73.4646 38.6411 74.5513 37.8854C75.4937 37.2275 75.5208 35.8628 74.2312 35.725C73.8028 35.6761 73.8073 36.3473 74.2357 36.3918Z" fill="#46A358"/>
<path d="M63.9998 41.7081C62.1872 43.3973 60.7577 45.3799 59.7477 47.6292C59.5718 48.016 60.1535 48.3583 60.3339 47.9671C61.3214 45.7711 62.7057 43.8329 64.4823 42.1837C64.7934 41.8859 64.3155 41.4147 63.9998 41.7081Z" fill="#46A358"/>
<path d="M32.5485 44.6244C33.067 45.3801 33.4007 46.1936 33.5585 47.0915C33.6307 47.5138 34.2845 47.336 34.2123 46.9137C34.0455 45.9669 33.6803 45.0823 33.1346 44.2866C32.8911 43.9354 32.305 44.2688 32.5485 44.6244Z" fill="#46A358"/>
</g>
<defs>
<clipPath id="clip0_2003_302">
<rect width="92" height="95" fill="white"/>
</clipPath>
</defs>
</svg>
