<svg width="92" height="95" viewBox="0 0 92 95" fill="none" xmlns="http://www.w3.org/2000/svg">
<g clip-path="url(#clip0_2003_302)">
<g clip-path="url(#clip1_2003_302)">
<path d="M49.3006 54.0271C49.3205 54.5113 49.4595 54.9693 49.7176 55.3815C49.9393 55.7414 50.5053 55.3979 50.2835 55.0413C50.0883 54.7239 49.979 54.3869 49.9658 54.0172C49.946 53.5952 49.2841 53.6083 49.3006 54.0271Z" fill="#46A358"/>
<path d="M57.8094 53.9843C57.7763 54.1675 57.7399 54.3474 57.7068 54.5307C57.6737 54.7041 57.7663 54.884 57.945 54.9298C58.1105 54.9723 58.3157 54.8676 58.3488 54.6942C58.3819 54.511 58.4183 54.3311 58.4514 54.1479C58.4845 53.9745 58.3918 53.7945 58.2131 53.7487C58.0476 53.7062 57.8425 53.8109 57.8094 53.9843Z" fill="#46A358"/>
<path d="M62.3401 54.6354C62.767 54.6256 62.7538 53.9713 62.3268 53.9811C61.8999 53.9909 61.9131 54.6452 62.3401 54.6354Z" fill="#46A358"/>
<path d="M37.4823 55.7936C37.9092 55.7838 37.896 55.1295 37.469 55.1393C37.0421 55.1491 37.0554 55.8034 37.4823 55.7936Z" fill="#46A358"/>
<path d="M49.5885 14.3872C47.0336 21.8368 45.6403 29.6398 45.488 37.5082C45.4119 41.4636 45.6469 45.4224 46.193 49.3418C46.4445 51.1478 46.7622 52.9472 47.1461 54.7303C47.4473 56.124 47.6028 57.7174 48.6486 58.7807C49.0954 59.2354 49.7805 58.5255 49.337 58.074C48.2084 56.9256 48.0926 54.498 47.8014 52.9963C47.434 51.0987 47.1428 49.1848 46.9277 47.2611C46.5206 43.6229 46.3849 39.9587 46.514 36.3009C46.7754 28.92 48.1555 21.6209 50.5516 14.6293C50.7568 14.0306 49.7904 13.7917 49.5885 14.3872Z" fill="#46A358"/>
<path d="M53.4408 14.5215C54.7778 21.9646 54.8109 29.5712 55.079 37.1059C55.2048 40.6459 55.4199 44.1956 55.3471 47.7389C55.271 51.4162 54.5462 54.8744 53.5699 58.4078C53.4011 59.0196 54.3641 59.2585 54.5329 58.6499C55.4497 55.3423 56.1778 52.0771 56.3168 48.6353C56.4723 44.7911 56.2109 40.9272 56.0752 37.0895C55.8038 29.4633 55.7475 21.7781 54.3939 14.2434C54.2814 13.6218 53.3283 13.9031 53.4408 14.5215Z" fill="#46A358"/>
<path d="M60.6291 27.3104C61.0825 37.4951 61.4929 47.8042 58.9776 57.7796C58.8221 58.3947 59.7851 58.6335 59.9407 58.0217C62.4758 47.9613 62.0819 37.5606 61.6219 27.2908C61.5921 26.6593 60.5993 26.6757 60.6291 27.3104Z" fill="#46A358"/>
<path d="M57.8226 27.4608C56.416 29.0868 55.4761 30.9778 55.0624 33.0815C54.94 33.6999 55.903 33.9453 56.0255 33.3236C56.4061 31.3803 57.2368 29.6463 58.5374 28.1413C58.9511 27.6604 58.2396 26.9798 57.8226 27.4608Z" fill="#46A358"/>
<path d="M67.6055 33.7164C67.5824 41.0908 66.5829 48.3965 64.6236 55.5124C64.4549 56.1242 65.4179 56.363 65.5867 55.7545C67.5658 48.5568 68.5752 41.1562 68.5984 33.6968C68.5984 33.0654 67.6055 33.085 67.6055 33.7164Z" fill="#46A358"/>
<path d="M65.7191 31.5211C63.1509 34.4624 61.89 38.0841 60.9832 41.8106C60.8343 42.4257 61.7973 42.6678 61.9463 42.0527C62.8133 38.5029 63.9849 35.012 66.4373 32.2017C66.851 31.724 66.1361 31.0402 65.7191 31.5211Z" fill="#46A358"/>
<path d="M41.7549 20.4171C43.5221 24.5329 44.8062 28.7991 45.6005 33.1995C45.713 33.8212 46.6629 33.5365 46.5537 32.9182C45.7594 28.5178 44.472 24.2515 42.708 20.1357C42.4598 19.5632 41.5067 19.8347 41.7549 20.4171Z" fill="#46A358"/>
<path d="M39.9148 20.7735C39.3952 27.0192 38.8855 33.3434 39.9379 39.5661C41.04 46.0571 43.7472 52.3911 45.8289 58.6236C46.0274 59.2224 46.9806 58.9443 46.782 58.3423C44.7665 52.2995 42.1619 46.1553 40.997 39.8867C39.8254 33.5756 40.3781 27.101 40.9076 20.7539C40.9606 20.1258 39.9677 20.1487 39.9148 20.7735Z" fill="#46A358"/>
<path d="M33.5969 35.8625C36.9097 38.9117 39.5937 42.4779 41.6059 46.4857C41.8905 47.0517 42.7345 46.5348 42.4532 45.972C40.4046 41.8922 37.6577 38.2574 34.2853 35.1526C33.8186 34.724 33.1303 35.4307 33.5969 35.8625Z" fill="#46A358"/>
<path d="M31.3233 37.1222C33.8882 44.6994 37.34 51.9364 41.6258 58.7087C41.9634 59.2453 42.8139 58.7349 42.4731 58.1951C38.2303 51.4914 34.8148 44.3395 32.2764 36.8408C32.0746 36.2454 31.1214 36.5202 31.3233 37.1222Z" fill="#46A358"/>
<path d="M37.0686 56.7619C35.6058 54.1773 33.4612 52.0278 30.7937 50.6602C30.251 50.3821 29.7314 50.4541 30.7838 50.3494C31.1677 50.3102 31.5649 50.2938 31.9488 50.3004C33.1998 50.3134 34.3316 50.5359 35.4072 51.2066C36.6582 51.9853 37.7503 53.1042 38.869 54.0563C39.3521 54.4685 40.0405 53.7618 39.5573 53.3496C38.1409 52.139 36.7376 50.6275 35.0001 49.875C34.0304 49.453 32.9813 49.3287 31.9289 49.3254C31.2604 49.3221 29.8704 49.1978 29.3111 49.7605C28.2189 50.8533 30.3106 51.4978 30.9625 51.8806C33.1998 53.1827 34.9604 55.0541 36.2213 57.2854C36.5324 57.8285 37.3797 57.3148 37.0686 56.7619Z" fill="#46A358"/>
<path d="M67.2812 48.7923C68.2509 46.6559 70.5047 45.9852 72.6492 45.5402C72.9636 45.4748 73.0894 45.0626 72.9305 44.8139C71.7656 42.9949 69.6442 42.8084 67.6552 42.9883C67.0231 43.0439 67.0363 44.0254 67.675 43.9698C69.2801 43.8259 71.1169 43.816 72.0833 45.3276C72.176 45.0855 72.2719 44.8434 72.3646 44.6013C69.9751 45.0953 67.4831 45.9492 66.4141 48.3146C66.1527 48.8872 67.0197 49.3681 67.2812 48.7923Z" fill="#46A358"/>
<path d="M33.4315 34.9137C32.9946 35.483 32.5048 36.1929 31.78 36.4219C31.0652 36.6477 30.3007 36.3238 30.3569 35.4699C30.3999 34.8025 30.9791 34.315 31.5417 34.0369C32.197 33.713 33.9941 33.5592 33.5175 34.8025C33.2925 35.3946 34.2555 35.6269 34.4806 35.0446C34.9406 33.8439 33.8352 32.7936 32.6637 32.7707C31.4325 32.7478 29.9995 33.5559 29.5362 34.7108C29.1026 35.7807 29.556 37.1188 30.7607 37.4231C32.2334 37.7928 33.3487 36.6379 34.1496 35.5975C34.5302 35.0936 33.8187 34.4099 33.4315 34.9137Z" fill="#46A358"/>
<path d="M41.9965 19.6807C41.3776 19.7952 40.4807 20.1944 39.8618 19.8672C39.2429 19.5368 39.3555 18.7156 39.7129 18.2412C40.0869 17.7471 40.676 17.5672 41.2717 17.7308C41.7549 17.8649 43.2607 19.1147 42.2116 19.5466C41.6291 19.7854 41.9038 20.7309 42.4962 20.4888C43.7373 19.9784 43.6942 18.5585 42.8966 17.6457C42.0924 16.7231 40.6528 16.373 39.5772 17.0437C38.6373 17.6326 38.1144 18.9151 38.6241 19.9424C39.3455 21.4016 41.0334 20.852 42.2811 20.623C42.9066 20.5052 42.6186 19.5629 41.9965 19.6807Z" fill="#46A358"/>
<path d="M53.7916 13.6937C52.9311 13.9129 51.9283 14.1714 51.0414 13.9587C49.7937 13.6643 49.7474 12.2509 50.6244 11.518C51.326 10.9324 52.4016 10.867 53.2521 11.1222C53.7883 11.2825 54.4171 11.6293 54.5627 12.2116C54.7017 12.758 54.4336 13.2978 53.8776 13.432C53.2588 13.5825 53.5401 14.5247 54.1623 14.3742C55.6416 14.0143 55.9659 12.192 55.0558 11.1189C54.0299 9.91163 51.9714 9.70552 50.5913 10.3729C49.294 11.0011 48.503 12.6893 49.3668 13.9783C50.3662 15.4735 52.62 15.0024 54.0729 14.6294C54.6918 14.4756 54.4105 13.5334 53.7916 13.6937Z" fill="#46A358"/>
<path d="M60.8706 23.3419C59.4442 23.09 57.8821 23.4989 57.2301 24.8959C56.7006 26.0279 57.2004 27.4969 58.4315 27.9222C59.6726 28.3508 61.5557 27.8208 62.2441 26.6823C62.9027 25.5863 62.4261 24.1958 61.3869 23.5414C60.8474 23.2012 60.3676 24.0616 60.9037 24.3986C61.5722 24.8174 61.7907 25.7695 61.2446 26.3813C60.7581 26.9276 59.7189 27.1599 59.014 27.0356C58.1072 26.8753 57.7564 25.9363 58.2098 25.1609C58.7062 24.3136 59.7288 24.1369 60.629 24.2939C61.2545 24.4052 61.4994 23.4531 60.8706 23.3419Z" fill="#46A358"/>
<path d="M68.5653 28.7662C67.311 28.6844 65.5735 28.8611 65.2955 30.3791C65.0671 31.6224 66.4968 33.2648 67.5923 33.7064C70.7198 34.966 71.3883 28.6844 68.691 28.8513C68.0556 28.8905 68.0721 29.872 68.7109 29.8328C69.5879 29.7771 69.3728 31.8285 69.1742 32.2342C68.7076 33.1993 67.814 32.846 67.2249 32.2309C66.7715 31.7565 65.9574 30.9157 66.4273 30.2352C66.8807 29.5808 67.8934 29.7052 68.5851 29.7477C69.2239 29.7902 69.1974 28.8087 68.5653 28.7662Z" fill="#46A358"/>
<path d="M50.6376 16.1767C50.5383 16.5071 50.4357 16.8376 50.3364 17.168C50.214 17.5737 50.856 17.7307 50.9785 17.3283C51.0778 16.9979 51.1804 16.6674 51.2797 16.337C51.4021 15.9313 50.7601 15.7743 50.6376 16.1767Z" fill="#46A358"/>
<path d="M52.0508 16.2326C52.0541 16.4518 52.0607 16.6677 52.064 16.8869C52.0739 17.309 52.7358 17.2959 52.7259 16.8738C52.7226 16.6546 52.716 16.4387 52.7127 16.2195C52.7061 15.7974 52.0442 15.8105 52.0508 16.2326Z" fill="#46A358"/>
<path d="M51.5808 20.1681C52.0078 20.1583 51.9945 19.504 51.5676 19.5138C51.144 19.5203 51.1572 20.1747 51.5808 20.1681Z" fill="#46A358"/>
<path d="M49.605 20.5347C49.5752 20.8978 49.5455 21.2643 49.519 21.6274C49.5057 21.8041 49.6911 21.9513 49.8566 21.9481C50.0518 21.9448 50.1676 21.791 50.1809 21.6143C50.2107 21.2512 50.2405 20.8848 50.2669 20.5216C50.2802 20.3449 50.0948 20.1977 49.9294 20.201C49.7341 20.2043 49.6183 20.358 49.605 20.5347Z" fill="#46A358"/>
<path d="M51.1705 21.5946C51.1804 21.9938 51.187 22.3929 51.1969 22.7953C51.2069 23.2174 51.8688 23.2043 51.8588 22.7823C51.8489 22.3831 51.8423 21.984 51.8324 21.5816C51.8224 21.1595 51.1605 21.1726 51.1705 21.5946Z" fill="#46A358"/>
<path d="M52.342 19.2783C52.385 19.6055 52.4281 19.9327 52.4711 20.2566C52.4943 20.4332 52.6167 20.5805 52.8087 20.5772C52.9708 20.5739 53.1562 20.4202 53.133 20.2435C53.09 19.9163 53.0469 19.5892 53.0039 19.2653C52.9808 19.0886 52.8583 18.9414 52.6664 18.9446C52.5009 18.9479 52.3155 19.1017 52.342 19.2783Z" fill="#46A358"/>
<path d="M52.438 24.1859C52.4413 24.3692 52.4446 24.5491 52.4479 24.7323C52.4578 25.1544 53.1197 25.1413 53.1098 24.7192C53.1065 24.536 53.1032 24.3561 53.0999 24.1729C53.0899 23.7508 52.428 23.7639 52.438 24.1859Z" fill="#46A358"/>
<path d="M51.005 18.8695C50.9719 19.1934 51.0447 19.4977 51.1804 19.7921C51.2532 19.9524 51.4981 19.9852 51.6371 19.9001C51.8059 19.7987 51.8191 19.6122 51.7463 19.4486C51.6603 19.2621 51.647 19.056 51.6669 18.8531C51.6835 18.6765 51.4915 18.5293 51.3293 18.5325C51.1341 18.5391 51.0215 18.6928 51.005 18.8695Z" fill="#46A358"/>
<path d="M48.6949 24.0648C48.6288 24.4313 48.5626 24.7944 48.4964 25.1608C48.4203 25.5731 49.0623 25.7367 49.1384 25.3212C49.2046 24.9547 49.2708 24.5916 49.337 24.2251C49.4098 23.8129 48.7711 23.6493 48.6949 24.0648Z" fill="#46A358"/>
<path d="M50.5185 26.3224C50.4887 26.5776 50.4556 26.8327 50.4258 27.0879C50.406 27.2646 50.4755 27.438 50.6641 27.4871C50.8196 27.5263 51.0447 27.4282 51.0679 27.2515C51.0976 26.9963 51.1307 26.7411 51.1605 26.486C51.1804 26.3093 51.1109 26.1359 50.9222 26.0868C50.7667 26.0443 50.5416 26.1457 50.5185 26.3224Z" fill="#46A358"/>
<path d="M49.936 30.9779C49.9889 31.256 49.9559 31.5275 49.8665 31.7926C49.7308 32.1917 50.3728 32.352 50.5085 31.9529C50.6376 31.5734 50.6475 31.184 50.5714 30.7914C50.5383 30.618 50.3199 30.5231 50.161 30.5722C49.9724 30.6278 49.8996 30.8045 49.936 30.9779Z" fill="#46A358"/>
<path d="M47.9139 28.3377C47.8841 28.5929 47.851 28.848 47.8212 29.1032C47.8013 29.2799 47.8708 29.4533 48.0595 29.5024C48.215 29.5416 48.4401 29.4435 48.4632 29.2668C48.493 29.0116 48.5261 28.7564 48.5559 28.5012C48.5758 28.3246 48.5063 28.1512 48.3176 28.1021C48.1588 28.0628 47.9337 28.161 47.9139 28.3377Z" fill="#46A358"/>
<path d="M52.4214 28.8579C52.5008 29.2211 52.577 29.5842 52.6564 29.9441C52.7458 30.3564 53.3812 30.1666 53.2918 29.7576C53.2124 29.3945 53.1363 29.0313 53.0569 28.6714C52.9675 28.2592 52.3354 28.4457 52.4214 28.8579Z" fill="#46A358"/>
<path d="M52.855 33.6674C52.8616 34.0305 52.8715 34.3937 52.8781 34.7569C52.8881 35.1789 53.55 35.1658 53.54 34.7438C53.5334 34.3806 53.5235 34.0175 53.5169 33.6543C53.5103 33.2323 52.8483 33.2453 52.855 33.6674Z" fill="#46A358"/>
<path d="M52.0739 38.4636C52.117 38.7187 52.1567 38.9707 52.1997 39.2259C52.2295 39.3993 52.4545 39.4909 52.6101 39.4451C52.7987 39.3894 52.8616 39.2128 52.8318 39.0394C52.7888 38.7842 52.7491 38.5323 52.7061 38.2771C52.6763 38.1037 52.4512 38.0121 52.2957 38.0579C52.107 38.1102 52.0442 38.2869 52.0739 38.4636Z" fill="#46A358"/>
<path d="M49.3734 36.0295C49.3767 36.2487 49.3833 36.4646 49.3866 36.6838C49.3966 37.1058 50.0585 37.0928 50.0485 36.6707C50.0452 36.4515 50.0386 36.2356 50.0353 36.0164C50.0287 35.5943 49.3668 35.6074 49.3734 36.0295Z" fill="#46A358"/>
<path d="M47.5498 33.2289C47.573 33.5004 47.5465 33.7556 47.4671 34.0174C47.3447 34.423 47.9867 34.5801 48.1092 34.1777C48.2051 33.8669 48.2382 33.5397 48.2117 33.2158C48.1753 32.8003 47.5134 32.8101 47.5498 33.2289Z" fill="#46A358"/>
<path d="M48.3805 40.7603C48.3474 41.0155 48.3177 41.2706 48.2846 41.5258C48.2614 41.7025 48.3342 41.8759 48.5228 41.925C48.6784 41.9642 48.9034 41.8661 48.9266 41.6894C48.9597 41.4342 48.9895 41.179 49.0226 40.9238C49.0457 40.7472 48.9729 40.5738 48.7843 40.5247C48.6254 40.4854 48.4037 40.5836 48.3805 40.7603Z" fill="#46A358"/>
<path d="M51.7562 44.4672C51.7993 44.6831 51.839 44.9023 51.882 45.1182C51.9151 45.2916 52.1335 45.3865 52.2924 45.3374C52.4777 45.2818 52.5472 45.1051 52.5141 44.9317C52.4711 44.7158 52.4314 44.4966 52.3884 44.2807C52.3553 44.1073 52.1368 44.0124 51.978 44.0615C51.7926 44.1171 51.7231 44.2938 51.7562 44.4672Z" fill="#46A358"/>
<path d="M49.9658 48.2131C50.0452 48.5763 50.128 48.9362 50.2074 49.2993C50.3001 49.7116 50.9322 49.5218 50.8428 49.1129C50.7634 48.7497 50.6807 48.3898 50.6012 48.0267C50.5086 47.6144 49.8731 47.8009 49.9658 48.2131Z" fill="#46A358"/>
<path d="M53.6592 50.5818C53.5897 50.837 53.5235 51.0922 53.454 51.3507C53.3448 51.7596 53.9868 51.9199 54.096 51.511C54.1655 51.2558 54.2317 51.0006 54.3012 50.7421C54.4104 50.3332 53.7684 50.1729 53.6592 50.5818Z" fill="#46A358"/>
<path d="M53.1661 22.1869C53.2091 22.4421 53.2521 22.6941 53.2952 22.9492C53.3249 23.1226 53.55 23.2143 53.7055 23.1684C53.8942 23.1128 53.9571 22.9362 53.9273 22.7628C53.8843 22.5076 53.8412 22.2556 53.7982 22.0005C53.7684 21.8271 53.5434 21.7355 53.3878 21.7813C53.2025 21.8369 53.1363 22.0135 53.1661 22.1869Z" fill="#46A358"/>
<path d="M53.2455 26.679C53.2918 27.0061 53.3382 27.33 53.3845 27.6572C53.411 27.8306 53.5268 27.9811 53.7221 27.9778C53.8842 27.9746 54.0696 27.8208 54.0464 27.6441C54.0001 27.317 53.9537 26.9931 53.9074 26.6659C53.8809 26.4925 53.7651 26.342 53.5698 26.3453C53.4077 26.3485 53.219 26.5056 53.2455 26.679Z" fill="#46A358"/>
<path d="M58.2098 30.3107C58.1204 30.8243 58.0278 31.3347 57.9384 31.8484C57.8656 32.2606 58.5077 32.4242 58.5805 32.0087C58.6698 31.495 58.7625 30.9846 58.8519 30.471C58.9247 30.0588 58.2826 29.8952 58.2098 30.3107Z" fill="#46A358"/>
<path d="M59.4972 29.3881C59.5038 29.6433 59.5071 29.8985 59.5137 30.1504C59.5237 30.5724 60.1856 30.5594 60.1756 30.1373C60.169 29.8821 60.1657 29.6269 60.1591 29.375C60.1492 28.953 59.4906 28.966 59.4972 29.3881Z" fill="#46A358"/>
<path d="M59.1364 32.8854C59.0736 33.4318 59.014 33.9781 58.9511 34.5245C58.9048 34.9433 59.5667 34.9237 59.613 34.5114C59.6759 33.9651 59.7355 33.4187 59.7984 32.8723C59.8447 32.4568 59.1828 32.4732 59.1364 32.8854Z" fill="#46A358"/>
<path d="M57.4221 33.8439C57.2798 34.1383 57.1408 34.4328 56.9985 34.724C56.8165 35.1035 57.3957 35.4241 57.5777 35.0413C57.72 34.7469 57.859 34.4524 58.0013 34.1613C58.1833 33.7817 57.6042 33.4611 57.4221 33.8439Z" fill="#46A358"/>
<path d="M56.4259 32.0937C56.3399 32.3162 56.2571 32.5354 56.1711 32.7579C56.1082 32.9247 56.2505 33.1145 56.4094 33.157C56.598 33.2061 56.747 33.085 56.8131 32.9215C56.8992 32.699 56.9819 32.4798 57.068 32.2573C57.1309 32.0904 56.9885 31.9007 56.8297 31.8582C56.641 31.8091 56.4921 31.9269 56.4259 32.0937Z" fill="#46A358"/>
<path d="M58.3157 36.3925C58.3025 36.6837 58.2925 36.9749 58.2793 37.266C58.2627 37.6881 58.9246 37.6717 58.9412 37.253C58.9544 36.9618 58.9644 36.6706 58.9776 36.3794C58.9941 35.9574 58.3322 35.9737 58.3157 36.3925Z" fill="#46A358"/>
<path d="M59.6726 38.1101C59.6594 38.3817 59.6461 38.6565 59.6329 38.9281C59.623 39.1047 59.8017 39.2519 59.9705 39.2487C60.1591 39.2454 60.2849 39.0916 60.2948 38.915C60.308 38.6434 60.3213 38.3686 60.3345 38.097C60.3445 37.9204 60.1657 37.7731 59.997 37.7764C59.8083 37.7797 59.6825 37.9335 59.6726 38.1101Z" fill="#46A358"/>
<path d="M59.1497 41.035C59.1199 41.2706 59.0868 41.5094 59.057 41.745C59.0339 41.9184 59.11 42.095 59.2953 42.1441C59.4542 42.1834 59.6759 42.0852 59.6991 41.9085C59.7288 41.673 59.7619 41.4342 59.7917 41.1986C59.8149 41.0252 59.7388 40.8485 59.5534 40.7995C59.3946 40.7569 59.1728 40.8583 59.1497 41.035Z" fill="#46A358"/>
<path d="M56.6808 39.0133C56.6477 39.2129 56.6146 39.4157 56.5815 39.6153C56.5517 39.7887 56.6378 39.9653 56.8198 40.0144C56.982 40.0537 57.1938 39.9523 57.2236 39.7789C57.2567 39.5793 57.2898 39.3764 57.3229 39.1769C57.3526 39.0035 57.2666 38.8268 57.0846 38.7777C56.9224 38.7352 56.7106 38.8366 56.6808 39.0133Z" fill="#46A358"/>
<path d="M57.1573 44.2152C57.1606 44.3592 57.164 44.5064 57.1673 44.6504C57.1772 45.0724 57.8391 45.0593 57.8292 44.6373C57.8259 44.4933 57.8225 44.3461 57.8192 44.2022C57.8093 43.7801 57.1474 43.7932 57.1573 44.2152Z" fill="#46A358"/>
<path d="M59.2953 46.1357C59.2986 46.2796 59.3019 46.4268 59.3052 46.5708C59.3151 46.9928 59.977 46.9797 59.9671 46.5577C59.9638 46.4137 59.9605 46.2665 59.9572 46.1226C59.9473 45.7005 59.2853 45.7136 59.2953 46.1357Z" fill="#46A358"/>
<path d="M57.389 50.101C57.4155 50.3562 57.389 50.5918 57.3063 50.8339C57.25 51.0007 57.3824 51.1905 57.5445 51.233C57.7299 51.2788 57.8887 51.1643 57.9483 50.9974C58.0476 50.7063 58.084 50.3955 58.0509 50.0912C58.031 49.9145 57.902 49.7673 57.7133 49.7706C57.5445 49.7706 57.3691 49.9243 57.389 50.101Z" fill="#46A358"/>
<path d="M58.2065 28.6517C58.1204 28.8185 58.0311 28.9854 57.945 29.149C57.7498 29.5219 58.3256 29.8425 58.5242 29.4663C58.6102 29.2994 58.6996 29.1326 58.7857 28.969C58.9809 28.596 58.4051 28.2754 58.2065 28.6517Z" fill="#46A358"/>
<path d="M41.04 22.4323C41.0996 22.7758 41.1625 23.1226 41.2221 23.4662C41.2518 23.6396 41.4769 23.7312 41.6324 23.6854C41.8211 23.6297 41.8873 23.4531 41.8542 23.2797C41.7946 22.9361 41.7317 22.5893 41.6721 22.2458C41.6424 22.0724 41.4173 21.9808 41.2618 22.0266C41.0731 22.0822 41.0069 22.2589 41.04 22.4323Z" fill="#46A358"/>
<path d="M42.0262 24.595C42.1785 24.9549 42.334 25.318 42.4863 25.6779C42.5558 25.8415 42.7146 25.9527 42.8966 25.8971C43.0522 25.8513 43.1879 25.655 43.1184 25.4914C42.9661 25.1315 42.8106 24.7684 42.6584 24.4085C42.5889 24.2449 42.43 24.1337 42.248 24.1893C42.0924 24.2351 41.9567 24.4314 42.0262 24.595Z" fill="#46A358"/>
<path d="M41.1228 25.8021C41.0467 26.306 41.0533 26.7869 41.1426 27.2842C41.2154 27.6964 41.8476 27.51 41.7781 27.0977C41.7119 26.7248 41.7119 26.3387 41.7681 25.9624C41.8244 25.5502 41.1823 25.3866 41.1228 25.8021Z" fill="#46A358"/>
<path d="M42.3804 27.6931C42.4929 28.0006 42.6021 28.3114 42.7146 28.619C42.8569 29.0149 43.4924 28.8316 43.3501 28.4325C43.2375 28.125 43.1283 27.8141 43.0158 27.5066C42.8735 27.1107 42.2381 27.294 42.3804 27.6931Z" fill="#46A358"/>
<path d="M40.8414 29.0019C40.848 29.365 40.858 29.7282 40.8646 30.0913C40.8745 30.5134 41.5364 30.5003 41.5265 30.0783C41.5199 29.7151 41.5099 29.3519 41.5033 28.9888C41.4967 28.5667 40.8348 28.5798 40.8414 29.0019Z" fill="#46A358"/>
<path d="M42.0825 30.2321C42.0891 30.5593 42.0957 30.8864 42.1024 31.2136C42.1123 31.6356 42.7742 31.6226 42.7643 31.2005C42.7576 30.8733 42.751 30.5462 42.7444 30.219C42.7345 29.797 42.0726 29.81 42.0825 30.2321Z" fill="#46A358"/>
<path d="M43.9325 30.8799C44.0649 31.2594 44.2006 31.6389 44.333 32.0184C44.472 32.4143 45.1074 32.2311 44.9684 31.8319C44.836 31.4524 44.7003 31.0729 44.568 30.6934C44.429 30.2975 43.7935 30.4807 43.9325 30.8799Z" fill="#46A358"/>
<path d="M44.6573 34.1383C44.697 34.3379 44.74 34.5375 44.7798 34.737C44.8162 34.9104 45.0313 35.0053 45.1901 34.9562C45.3755 34.9006 45.4483 34.7239 45.4119 34.5505C45.3722 34.351 45.3291 34.1514 45.2894 33.9518C45.253 33.7784 45.0379 33.6835 44.879 33.7326C44.697 33.785 44.6209 33.9649 44.6573 34.1383Z" fill="#46A358"/>
<path d="M42.8404 34.1743C42.9496 34.4818 43.029 34.7959 43.0654 35.1198C43.0853 35.2965 43.2144 35.4437 43.403 35.4404C43.5685 35.4372 43.7472 35.2834 43.7273 35.1067C43.6843 34.7239 43.6049 34.351 43.4758 33.9878C43.3335 33.5919 42.6981 33.7752 42.8404 34.1743Z" fill="#46A358"/>
<path d="M41.1426 32.8691C41.1492 33.1242 41.1526 33.3794 41.1592 33.6314C41.1691 34.0534 41.831 34.0403 41.8211 33.6183C41.8145 33.3631 41.8111 33.1079 41.8045 32.856C41.7946 32.4339 41.136 32.447 41.1426 32.8691Z" fill="#46A358"/>
<path d="M41.9402 36.7787C41.9667 37.1059 42.0295 37.4265 42.1388 37.734C42.2811 38.1299 42.9165 37.9467 42.7742 37.5475C42.6815 37.2924 42.6219 37.0339 42.6021 36.7656C42.5723 36.3468 41.9104 36.3599 41.9402 36.7787Z" fill="#46A358"/>
<path d="M43.3897 39.563C43.4493 39.7626 43.5089 39.9622 43.5685 40.1585C43.6876 40.5609 44.323 40.3777 44.2039 39.972C44.1443 39.7724 44.0847 39.5761 44.0252 39.3765C43.906 38.9741 43.2706 39.1573 43.3897 39.563Z" fill="#46A358"/>
<path d="M44.1675 37.0371C44.2072 37.181 44.247 37.325 44.2867 37.4722C44.3992 37.8779 45.0346 37.6914 44.9221 37.2857C44.8824 37.1418 44.8427 36.9978 44.803 36.8506C44.6904 36.4449 44.055 36.6314 44.1675 37.0371Z" fill="#46A358"/>
<path d="M42.291 42.4779C42.3738 42.8018 42.4532 43.129 42.5359 43.4529C42.6385 43.8618 43.2739 43.6753 43.1713 43.2664C43.0886 42.9425 43.0092 42.6153 42.9264 42.2914C42.8238 41.8824 42.1884 42.0689 42.291 42.4779Z" fill="#46A358"/>
<path d="M43.9358 47.2415C43.9954 47.3854 44.0517 47.5294 44.1112 47.6733C44.1774 47.8369 44.3396 47.9481 44.5216 47.8925C44.6805 47.8467 44.8095 47.6504 44.7433 47.4868C44.6838 47.3429 44.6275 47.1989 44.5679 47.055C44.5018 46.8914 44.3396 46.7802 44.1576 46.8358C43.9987 46.8816 43.8696 47.0779 43.9358 47.2415Z" fill="#46A358"/>
<path d="M65.4808 33.6836C65.3054 34.0336 65.1266 34.3804 64.9512 34.7305C64.7593 35.1068 65.3385 35.4274 65.5304 35.0479C65.7058 34.6978 65.8845 34.351 66.0599 34.0009C66.2519 33.6247 65.6727 33.3073 65.4808 33.6836Z" fill="#46A358"/>
<path d="M66.4074 34.5047C66.3247 34.8352 66.2387 35.1623 66.1559 35.4928C66.05 35.9017 66.6921 36.0621 66.798 35.6531C66.8807 35.3227 66.9667 34.9955 67.0495 34.6651C67.1521 34.2594 66.51 34.0991 66.4074 34.5047Z" fill="#46A358"/>
<path d="M65.5933 37.6325C65.5106 37.9073 65.4278 38.1821 65.3418 38.457C65.2194 38.8627 65.8614 39.0197 65.9838 38.6173C66.0666 38.3425 66.1493 38.0676 66.2354 37.7928C66.3545 37.3904 65.7125 37.2301 65.5933 37.6325Z" fill="#46A358"/>
<path d="M65.0373 36.3076C64.9678 36.4352 64.895 36.566 64.8255 36.6936C64.6203 37.0633 65.1995 37.384 65.4046 37.011C65.4741 36.8834 65.547 36.7525 65.6165 36.6249C65.8216 36.2585 65.2425 35.9379 65.0373 36.3076Z" fill="#46A358"/>
<path d="M66.6722 36.4646C66.6424 36.7198 66.6126 36.975 66.5829 37.2302C66.563 37.4069 66.6325 37.5803 66.8211 37.6293C66.9767 37.6686 67.2017 37.5704 67.2249 37.3938C67.2547 37.1386 67.2845 36.8834 67.3143 36.6282C67.3341 36.4515 67.2646 36.2781 67.076 36.2291C66.9171 36.1898 66.6921 36.2879 66.6722 36.4646Z" fill="#46A358"/>
<path d="M63.5547 38.1625C63.4885 38.3719 63.3892 38.5616 63.27 38.7448C63.0384 39.0982 63.6175 39.4155 63.8492 39.0622C64.0014 38.8332 64.114 38.5845 64.1967 38.3228C64.2497 38.1559 64.1239 37.9662 63.9584 37.9236C63.7731 37.8811 63.6076 37.9923 63.5547 38.1625Z" fill="#46A358"/>
<path d="M63.5348 40.9761C63.3925 41.2084 63.323 41.4734 63.3362 41.745C63.3561 42.1638 64.018 42.1539 63.9982 41.7319C63.9915 41.5683 64.0246 41.4342 64.114 41.2968C64.3357 40.9336 63.7566 40.6162 63.5348 40.9761Z" fill="#46A358"/>
<path d="M65.2591 40.2565C65.1929 40.4757 65.1267 40.6982 65.0638 40.9174C64.9447 41.3231 65.5867 41.4801 65.7058 41.0777C65.772 40.8585 65.8382 40.636 65.9011 40.4168C66.0202 40.0111 65.3782 39.8541 65.2591 40.2565Z" fill="#46A358"/>
<path d="M64.713 43.4824C64.6435 43.7212 64.5773 43.9568 64.5078 44.1956C64.392 44.6013 65.034 44.7616 65.1499 44.3559C65.2194 44.1171 65.2855 43.8815 65.355 43.6427C65.4709 43.2403 64.8288 43.0799 64.713 43.4824Z" fill="#46A358"/>
<path d="M66.8112 38.8364C66.7947 38.9837 66.7814 39.1276 66.7649 39.2749C66.745 39.4515 66.9403 39.5987 67.1025 39.5955C67.301 39.5922 67.4069 39.4384 67.4268 39.2618C67.4433 39.1145 67.4566 38.9706 67.4731 38.8234C67.493 38.6467 67.2977 38.4995 67.1356 38.5027C66.937 38.5093 66.8311 38.6598 66.8112 38.8364Z" fill="#46A358"/>
<path d="M62.6545 45.3799C62.6214 45.4911 62.585 45.5991 62.5519 45.7103C62.4261 46.1127 63.0682 46.2731 63.1939 45.8706C63.227 45.7594 63.2634 45.6514 63.2965 45.5402C63.4223 45.1378 62.7802 44.9807 62.6545 45.3799Z" fill="#46A358"/>
<path d="M62.1216 48.7202C62.0521 48.9034 61.9793 49.0866 61.9098 49.2698C61.8469 49.4334 61.9892 49.6264 62.1481 49.669C62.34 49.718 62.4857 49.597 62.5518 49.4334C62.6213 49.2502 62.6942 49.067 62.7637 48.8838C62.8265 48.7202 62.6842 48.5272 62.5254 48.4846C62.3334 48.4355 62.1878 48.5533 62.1216 48.7202Z" fill="#46A358"/>
<path d="M64.7262 47.3888C64.7296 47.4968 64.7296 47.608 64.7329 47.716C64.7428 48.138 65.4047 48.1249 65.3948 47.7029C65.3915 47.5949 65.3915 47.4837 65.3881 47.3757C65.3782 46.9537 64.7163 46.9668 64.7262 47.3888Z" fill="#46A358"/>
<path d="M63.4918 51.7237C63.4752 51.8709 63.462 52.0148 63.4454 52.1621C63.4256 52.3387 63.6208 52.486 63.783 52.4827C63.9816 52.4794 64.0875 52.3257 64.1073 52.149C64.1239 52.0018 64.1371 51.8578 64.1537 51.7106C64.1735 51.5339 63.9783 51.3867 63.8161 51.3899C63.6208 51.3932 63.5116 51.547 63.4918 51.7237Z" fill="#46A358"/>
<path d="M33.2593 38.0806C33.3156 38.2606 33.3752 38.4438 33.4314 38.6237C33.5572 39.0261 34.1926 38.8397 34.0668 38.4373C34.0106 38.2573 33.951 38.0741 33.8948 37.8942C33.7657 37.4917 33.1303 37.6782 33.2593 38.0806Z" fill="#46A358"/>
<path d="M33.9411 37.3381C34.1628 37.6097 34.3879 37.8812 34.6096 38.1495C34.7221 38.2869 34.9637 38.2574 35.0762 38.1397C35.2119 37.999 35.1788 37.8158 35.0663 37.6784C34.8446 37.4068 34.6195 37.1353 34.3978 36.867C34.2853 36.7296 34.0437 36.759 33.9312 36.8768C33.7955 37.0142 33.8286 37.2007 33.9411 37.3381Z" fill="#46A358"/>
<path d="M35.212 39.6415C35.4039 39.9098 35.5959 40.1781 35.7845 40.4431C36.0294 40.7866 36.5954 40.4464 36.3504 40.1029C36.1585 39.8346 35.9665 39.5663 35.7779 39.3013C35.5297 38.9578 34.9638 39.2947 35.212 39.6415Z" fill="#46A358"/>
<path d="M34.3979 40.4233C34.5501 40.6752 34.7023 40.9271 34.8546 41.1791C35.073 41.5389 35.6389 41.1987 35.4205 40.8388C35.2683 40.5869 35.116 40.335 34.9638 40.083C34.742 39.7199 34.1794 40.0601 34.3979 40.4233Z" fill="#46A358"/>
<path d="M35.8805 43.1224C36.0724 43.4626 36.2677 43.8029 36.4596 44.1431C36.6681 44.5096 37.2341 44.1693 37.0256 43.8029C36.8336 43.4626 36.6383 43.1224 36.4464 42.7821C36.2346 42.4157 35.672 42.756 35.8805 43.1224Z" fill="#46A358"/>
<path d="M36.4662 42.131C36.5986 42.3273 36.731 42.5269 36.8634 42.7232C37.0984 43.0732 37.6643 42.733 37.4293 42.3829C37.2969 42.1866 37.1646 41.987 37.0322 41.7907C36.7939 41.4407 36.228 41.7777 36.4662 42.131Z" fill="#46A358"/>
<path d="M36.7741 40.757C36.8833 40.9893 37.0686 41.1693 37.2903 41.3001C37.661 41.5128 37.982 40.9402 37.6114 40.7276C37.479 40.6523 37.3996 40.5509 37.3367 40.4168C37.2606 40.2565 37.0223 40.2237 36.88 40.3088C36.7178 40.4102 36.6979 40.5967 36.7741 40.757Z" fill="#46A358"/>
<path d="M34.2919 42.4745C34.335 42.6544 34.3747 42.8344 34.4177 43.0176C34.4574 43.191 34.6659 43.2859 34.8281 43.2368C35.0101 43.1844 35.0895 43.0012 35.0498 42.8311C35.0068 42.6512 34.9671 42.4712 34.924 42.288C34.8843 42.1146 34.6758 42.0197 34.5137 42.0688C34.3316 42.1211 34.2522 42.3044 34.2919 42.4745Z" fill="#46A358"/>
<path d="M36.3802 45.8936C36.5325 46.2011 36.6847 46.5087 36.8336 46.8129C36.9131 46.9733 37.148 47.006 37.2903 46.9209C37.4558 46.8228 37.479 46.6297 37.3996 46.4694C37.2473 46.1619 37.0951 45.8543 36.9462 45.5501C36.8667 45.3898 36.6317 45.357 36.4894 45.4421C36.324 45.5435 36.3008 45.7366 36.3802 45.8936Z" fill="#46A358"/>
<path d="M38.8525 44.9679C38.9683 45.1838 39.0808 45.3997 39.1966 45.6156C39.3952 45.9886 39.9578 45.6451 39.7626 45.2754C39.6467 45.0595 39.5342 44.8435 39.4184 44.6276C39.2165 44.2546 38.6539 44.5949 38.8525 44.9679Z" fill="#46A358"/>
<path d="M39.607 49.6463C39.703 49.8263 39.799 50.0062 39.8982 50.1829C40.1001 50.5558 40.6627 50.2123 40.4642 49.8426C40.3682 49.6627 40.2722 49.4827 40.1729 49.3061C39.971 48.9331 39.4051 49.2734 39.607 49.6463Z" fill="#46A358"/>
<path d="M40.7819 47.9875C40.8944 48.1675 41.0103 48.3474 41.1228 48.5273C41.3478 48.884 41.9138 48.5437 41.6887 48.1871C41.5762 48.0071 41.4603 47.8272 41.3478 47.6473C41.1195 47.2907 40.5535 47.6309 40.7819 47.9875Z" fill="#46A358"/>
<path d="M42.0991 53.0323C42.1918 53.1959 42.2877 53.3562 42.3804 53.5198C42.5922 53.8862 43.1548 53.5427 42.9463 53.1795C42.8537 53.0159 42.7577 52.8556 42.665 52.692C42.4532 52.3256 41.8873 52.6659 42.0991 53.0323Z" fill="#46A358"/>
<path d="M31.4259 51.0104C31.6476 51.1151 31.8727 51.2165 32.0944 51.3212C32.4783 51.5012 32.8026 50.9286 32.4154 50.7487C32.1937 50.644 31.9687 50.5426 31.7469 50.4379C31.3663 50.2612 31.042 50.8305 31.4259 51.0104Z" fill="#46A358"/>
<path d="M33.5341 51.9624C33.779 52.1358 34.0239 52.3124 34.2655 52.4858C34.4111 52.5905 34.6361 52.5022 34.7156 52.3582C34.8115 52.1881 34.7321 52.018 34.5865 51.9133C34.3416 51.7399 34.0967 51.5632 33.8551 51.3898C33.7095 51.2851 33.4844 51.3735 33.405 51.5174C33.3123 51.6875 33.3918 51.8577 33.5341 51.9624Z" fill="#46A358"/>
<path d="M33.2097 50.9613C33.3785 50.9973 33.534 51.053 33.6863 51.138C34.0603 51.3409 34.3813 50.7683 34.0073 50.5655C33.8087 50.4575 33.5936 50.3757 33.3719 50.3266C32.9582 50.235 32.7927 50.8697 33.2097 50.9613Z" fill="#46A358"/>
<path d="M35.1491 52.3584C35.298 52.4631 35.4469 52.571 35.5959 52.6757C35.7415 52.7772 35.9665 52.6921 36.046 52.5481C36.1419 52.378 36.0625 52.2046 35.9169 52.1032C35.768 51.9985 35.619 51.8905 35.4701 51.7858C35.3245 51.6844 35.0994 51.7695 35.02 51.9134C34.9273 52.0836 35.0035 52.2537 35.1491 52.3584Z" fill="#46A358"/>
<path d="M35.1028 53.3366C35.1789 53.4446 35.255 53.5525 35.3311 53.6605C35.5727 54.004 36.1387 53.667 35.8971 53.3202C35.8209 53.2123 35.7448 53.1043 35.6687 52.9963C35.4271 52.6495 34.8579 52.9898 35.1028 53.3366Z" fill="#46A358"/>
<path d="M36.602 53.8634C36.7509 53.9877 36.8998 54.1121 37.052 54.2364C37.1877 54.3509 37.3896 54.3607 37.5187 54.2266C37.6378 54.1055 37.6478 53.8765 37.5088 53.7653C37.3598 53.6409 37.2109 53.5166 37.0587 53.3923C36.923 53.2778 36.7211 53.268 36.592 53.4021C36.4729 53.5199 36.463 53.7489 36.602 53.8634Z" fill="#46A358"/>
<path d="M70.7628 44.2251C70.4086 44.1597 70.0578 44.1662 69.707 44.2546C69.2933 44.3593 69.482 44.9874 69.8957 44.8827C70.1273 44.8238 70.3623 44.814 70.5973 44.8598C71.0176 44.9384 71.1798 44.3037 70.7628 44.2251Z" fill="#46A358"/>
<path d="M68.4792 44.9021C68.3534 44.997 68.2244 45.0886 68.0986 45.1835C67.9563 45.2882 67.8901 45.4714 67.9894 45.635C68.0754 45.7756 68.3005 45.8509 68.4461 45.7429C68.5719 45.648 68.7009 45.5564 68.8267 45.4616C68.969 45.3569 69.0352 45.1737 68.9359 45.0101C68.8499 44.8694 68.6248 44.7974 68.4792 44.9021Z" fill="#46A358"/>
<path d="M68.5851 44.5817C69.0121 44.5719 68.9988 43.9175 68.5719 43.9274C68.145 43.9372 68.1582 44.5915 68.5851 44.5817Z" fill="#46A358"/>
</g>
<g clip-path="url(#clip2_2003_302)">
<path d="M35.3859 57.6164C33.0447 63.6309 31.3971 69.9163 30.8568 76.3708C30.3966 81.8878 30.5367 87.8381 33.5583 92.6511C33.9051 93.2028 34.7589 92.6748 34.412 92.1197C31.3804 87.2931 31.3871 81.238 31.9141 75.7243C32.501 69.5812 34.1285 63.5937 36.3564 57.8668C36.5898 57.261 35.6193 57.0173 35.3859 57.6164Z" fill="#727272"/>
<path d="M65.7884 56.6855C71.1146 60.7471 71.1212 68.1933 71.6949 74.3061C71.985 77.3895 72.3852 80.4831 72.5253 83.58C72.6554 86.4096 72.4219 89.4152 70.2141 91.4189C69.7338 91.8556 70.4575 92.5562 70.9345 92.1229C72.8788 90.3595 73.4791 87.8346 73.5458 85.2724C73.6425 81.6237 73.0322 77.9141 72.692 74.2891C72.0951 67.9192 72.0217 60.1818 66.4788 55.9544C65.9719 55.5652 65.2748 56.2929 65.7884 56.6855Z" fill="#727272"/>
<path d="M33.7584 92.8542C36.5832 93.8865 39.4713 94.1437 42.4429 94.3976C45.7313 94.6785 49.0497 95.1016 52.3547 94.9831C55.7098 94.8647 59.0749 94.3806 62.41 94.0151C65.3282 93.6936 68.223 93.2874 70.9444 92.1095C71.5281 91.8557 71.2513 90.8775 70.6576 91.1348C67.8362 92.3566 64.8413 92.7357 61.8163 93.0606C58.668 93.3991 55.4997 93.856 52.3347 93.9677C49.2331 94.0794 46.1248 93.6969 43.0365 93.4363C39.9583 93.1723 36.9367 92.9422 34.0052 91.8726C33.3982 91.6458 33.158 92.6342 33.7584 92.8542Z" fill="#727272"/>
<path d="M35.626 58.1849C37.9539 59.1495 40.3318 60.0025 42.8431 60.3037C45.4545 60.6151 48.1159 60.1683 50.7439 60.236C52.2013 60.2732 53.512 60.4729 54.9828 60.2597C56.2501 60.0735 57.5175 59.8163 58.7481 59.4609C61.2994 58.723 63.7707 57.6941 66.2754 56.8073C66.879 56.5941 66.5989 55.6193 65.9885 55.8325C61.086 57.5689 56.4903 59.5963 51.1975 59.2477C48.9963 59.1021 46.8052 59.4304 44.6107 59.4101C41.6558 59.3797 38.8144 58.4184 36.1063 57.2981C35.5226 57.0544 35.029 57.9378 35.626 58.1849Z" fill="#727272"/>
<path d="M5.66366 61.2413C11.2666 62.1348 16.4793 64.8257 20.3847 69.0193C24.1633 73.0775 26.2878 78.4252 30.4099 82.1924C30.8868 82.629 31.5839 81.8979 31.1036 81.4613C26.7347 77.4674 24.5502 71.6898 20.348 67.5368C16.4126 63.6478 11.3233 61.1194 5.91046 60.2564C5.27679 60.1548 5.02666 61.1398 5.66366 61.2413Z" fill="#727272"/>
<path d="M6.53746 59.4236C11.6235 58.2458 17.0296 58.9464 21.5987 61.5424C25.2439 63.6138 28.2355 66.8868 32.5877 67.3336C33.2281 67.3979 33.2014 66.3825 32.5677 66.3182C27.6852 65.8173 24.1633 61.3529 19.761 59.5184C15.4688 57.7313 10.763 57.4064 6.25398 58.4488C5.62365 58.5944 5.91047 59.5692 6.53746 59.4236Z" fill="#727272"/>
<path d="M5.72372 58.7433C5.34019 59.2781 5.09339 59.9042 5.00668 60.5575C4.96999 60.8316 5.08672 61.099 5.3702 61.1735C5.60699 61.2378 5.9405 61.0787 5.97719 60.8045C6.05389 60.2224 6.25733 59.7113 6.59751 59.2341C6.75759 59.0107 6.61752 58.6688 6.40408 58.5436C6.14727 58.3981 5.88047 58.5233 5.72372 58.7433Z" fill="#727272"/>
<path d="M69.8105 59.6708C71.8782 55.6532 78.4483 55.1354 82.1569 56.9766C86.1757 58.9736 88.03 63.8103 86.3825 68.0411C84.9484 71.727 81.2631 73.531 78.2316 75.6566C76.9542 76.5535 75.5335 77.5622 74.6497 78.8856C73.7259 80.2699 73.8459 82.0299 72.9321 83.4109C72.5719 83.9558 73.4491 84.4432 73.8059 83.905C74.3829 83.0352 74.5496 82.1078 74.8064 81.1127C75.17 79.7216 75.897 78.828 76.9409 77.9176C78.7385 76.3505 80.8462 75.2166 82.7606 73.812C86.149 71.3242 88.5269 67.7906 87.8966 63.3635C87.3196 59.3324 84.1246 55.9985 80.1792 55.264C76.2038 54.5227 70.9644 55.2369 68.9334 59.18C68.6365 59.7554 69.5103 60.2496 69.8105 59.6708Z" fill="#727272"/>
<path d="M70.8244 62.2263C72.2084 59.4238 75.3601 58.6995 78.2216 58.9229C80.1292 59.0718 81.3065 59.8334 82.3037 61.4953C83.4076 63.3297 83.3542 64.8833 82.7306 66.8396C81.7501 69.9062 79.9825 71.3277 77.2644 72.7662C75.4835 73.7071 72.7654 74.9392 72.055 77.0207C71.8449 77.6401 72.8154 77.8838 73.0255 77.2712C73.6725 75.3758 76.8475 74.1438 78.4817 73.2671C79.8991 72.509 81.2265 71.673 82.1836 70.336C83.6978 68.224 84.9417 64.775 83.8445 62.2737C82.5038 59.214 80.4527 57.8567 77.1777 57.8804C74.2628 57.9007 71.3246 58.9568 69.9539 61.7322C69.6638 62.3143 70.5376 62.8085 70.8244 62.2263Z" fill="#727272"/>
<path d="M52.308 69.5709C49.3665 70.0143 46.8819 72.2346 46.585 75.3383C46.3016 78.2965 48.2693 82.1483 51.611 81.9215C54.6593 81.715 57.3673 78.7162 57.6475 75.7174C57.9576 72.4174 55.5197 69.5404 52.208 69.6859C51.5643 69.713 51.5843 70.7284 52.228 70.7013C55.1328 70.5727 57.1339 73.2669 56.5903 76.1033C56.15 78.3981 53.9689 80.7132 51.591 80.9095C48.6695 81.1498 47.1787 77.3962 47.6423 74.9593C48.0858 72.6238 50.0569 70.9315 52.328 70.5896C52.955 70.4915 52.945 69.4727 52.308 69.5709Z" fill="#727272"/>
<path d="M52.8817 70.0143C52.7049 67.8616 56.0366 64.5886 57.7042 67.0798C58.2211 67.8515 58.7214 69.2223 58.5079 70.1733C58.2778 71.1921 57.294 71.9537 56.5402 72.5798C56.0433 72.9928 56.7704 73.6934 57.2606 73.2839C58.4479 72.2989 59.6685 71.1177 59.5552 69.4287C59.4618 68.0478 58.708 66.2268 57.5208 65.4687C54.9861 63.8474 51.6777 67.5604 51.8811 70.038C51.9345 70.6844 52.935 70.6675 52.8817 70.0143Z" fill="#727272"/>
<path d="M57.5274 73.5106C58.7814 72.7559 62.0265 72.9555 61.6896 75.1353C61.3695 77.2135 58.7181 77.2981 57.1472 77.3184C56.5036 77.3252 56.5236 78.3406 57.1673 78.3338C59.3717 78.3067 63.2271 77.6027 62.6768 74.438C62.2432 71.9537 58.7881 71.5678 57.0038 72.6442C56.4502 72.9792 56.9705 73.8457 57.5274 73.5106Z" fill="#727272"/>
<path d="M56.5202 78.5198C58.2745 79.3051 60.2488 81.6371 58.5813 83.519C56.6303 85.719 53.8088 83.5427 53.0884 81.4205C52.8783 80.8045 51.9178 81.0888 52.1279 81.7116C53.0618 84.4532 56.4268 86.8224 59.0215 84.4972C61.5429 82.2396 59.5385 78.7669 57.0072 77.6297C56.4235 77.3691 55.9333 78.2558 56.5202 78.5198Z" fill="#727272"/>
<path d="M51.6477 81.6746C51.7377 83.3805 51.2675 85.919 49.0063 85.6143C47.9791 85.4756 47.1887 84.538 47.2354 83.4752C47.2754 82.5208 47.9391 81.4072 48.3026 80.534C48.5494 79.9383 47.679 79.4373 47.4288 80.0398C46.8986 81.3192 45.9781 82.8118 46.3182 84.2571C46.5951 85.4282 47.5055 86.359 48.6728 86.5925C51.651 87.1916 52.775 84.0743 52.6482 81.6509C52.6149 81.001 51.6144 81.018 51.6477 81.6746Z" fill="#727272"/>
<path d="M48.1659 79.2715C46.3016 80.0534 43.4234 79.8537 42.7731 77.481C42.4896 76.4385 42.8064 75.2065 43.7703 74.6413C44.7074 74.093 45.9181 74.2385 46.9386 74.3637C47.5689 74.4416 47.8224 73.4567 47.1854 73.3788C45.7713 73.2062 44.1671 73.0539 42.9498 73.9745C41.9393 74.7394 41.5291 76.0798 41.7225 77.3152C42.2228 80.5069 45.9014 81.3091 48.4494 80.2429C49.043 79.9992 48.7629 79.021 48.1659 79.2715Z" fill="#727272"/>
<path d="M47.5456 73.4936C45.8613 72.5798 44.9809 69.2222 46.4583 67.7702C48.3993 65.8646 50.7839 68.5656 51.9579 70.0277C52.3647 70.5321 53.0518 69.7976 52.6516 69.2966C51.1174 67.3877 47.799 64.4667 45.5312 67.2185C43.8636 69.2459 44.8608 73.189 47.0586 74.3838C47.6256 74.6918 48.1159 73.805 47.5456 73.4936Z" fill="#727272"/>
<path d="M49.153 80.9569C48.3626 81.7286 47.849 83.8169 49.063 84.4499C50.5171 85.2114 51.1608 82.6221 51.3542 81.688C51.4409 81.2615 50.7939 81.0956 50.7072 81.5221C50.6205 81.9452 50.5104 82.3615 50.357 82.7677C50.2803 82.9674 50.1969 83.1671 50.0969 83.3566C49.9435 83.6511 49.8534 83.8406 49.4999 83.8C48.5461 83.6815 49.1997 81.8504 49.6366 81.4273C49.9435 81.1227 49.4632 80.6556 49.153 80.9569Z" fill="#727272"/>
<path d="M53.452 81.0043C53.2819 81.9791 54.3691 82.744 55.1462 83.0926C55.9333 83.4446 57.0305 83.5631 57.7676 83.0114C58.4713 82.4834 58.3612 81.5255 58.0577 80.7944C57.6442 79.7993 56.7937 79.1292 55.8099 78.7772C55.403 78.6316 55.2429 79.2916 55.6465 79.4338C56.2401 79.647 56.7737 80.0058 57.1506 80.527C57.2806 80.7098 57.3807 80.9027 57.4641 81.1126C57.6575 81.6068 57.6875 81.8301 57.344 82.26C57.0505 82.6255 56.8971 82.7102 56.4502 82.7135C56.1701 82.7135 55.8799 82.656 55.6164 82.5612C55.2129 82.4157 53.9956 81.7726 54.099 81.1769C54.1724 80.7437 53.5287 80.5744 53.452 81.0043Z" fill="#727272"/>
<path d="M57.3207 76.6246C58.1578 76.8378 58.9915 76.4723 59.6952 76.0221C60.2088 75.6938 60.8859 75.0947 60.8258 74.4009C60.7758 73.8221 60.2088 73.5479 59.7019 73.487C58.8281 73.3787 57.971 73.7612 57.2606 74.2418C56.9038 74.4821 57.2506 75.0643 57.6075 74.8206C57.9777 74.5667 58.3712 74.3433 58.8081 74.2316C59.2117 74.1267 60.3856 73.9575 60.0287 74.807C59.7153 75.5618 58.1945 76.1474 57.4841 75.968C57.0672 75.863 56.9038 76.5197 57.3207 76.6246Z" fill="#727272"/>
<path d="M54.209 70.3056C54.1556 69.7912 54.2624 69.2801 54.6292 68.901C54.896 68.6201 55.543 68.2478 55.9232 68.4644C56.2601 68.6573 56.2367 69.4696 56.2367 69.8453C56.2334 70.3835 56.12 70.8946 55.9432 71.3989C55.7998 71.8084 56.4468 71.9709 56.5903 71.5647C56.8771 70.7456 56.9771 69.8859 56.8404 69.0228C56.747 68.4305 56.647 67.8416 55.9899 67.7536C54.5358 67.5539 53.4053 68.9247 53.5487 70.3226C53.5853 70.749 54.2524 70.7389 54.209 70.3056Z" fill="#727272"/>
<path d="M48.0158 72.5697C47.4988 71.9097 47.0553 70.7116 47.2287 69.862C47.3321 69.3475 47.4522 69.1986 47.9791 69.1445C48.506 69.0903 48.6361 69.2494 49.0163 69.5608C49.4032 69.8755 49.78 70.2005 50.1636 70.5186C50.4937 70.7928 50.9573 70.3088 50.6238 70.0312C49.6833 69.246 48.1725 67.4352 46.9752 68.8128C46.0481 69.8823 46.6717 71.9402 47.4455 72.9251C47.709 73.2602 48.2826 72.9116 48.0158 72.5697Z" fill="#727272"/>
<path d="M46.8185 75.2065C45.5178 74.6785 43.8203 75.8529 44.0204 77.3354C44.2072 78.7401 46.4383 79.2613 47.4422 78.4693C47.7757 78.2053 47.4322 77.6231 47.0953 77.8905C46.5484 78.3237 45.1877 78.2087 44.7875 77.5622C44.2005 76.6246 45.6312 75.4434 46.4984 75.7988C46.8886 75.9579 47.2154 75.3689 46.8185 75.2065Z" fill="#727272"/>
</g>
<circle cx="36" cy="62" r="37" fill="#46A358" fill-opacity="0.13"/>
</g>
<defs>
<clipPath id="clip0_2003_302">
<rect width="92" height="95" fill="white"/>
</clipPath>
<clipPath id="clip1_2003_302">
<rect width="44" height="49" fill="white" transform="translate(29 10)"/>
</clipPath>
<clipPath id="clip2_2003_302">
<rect width="83" height="40" fill="white" transform="translate(5 55)"/>
</clipPath>
</defs>
</svg>
