<svg width="92" height="95" viewBox="0 0 92 95" fill="none" xmlns="http://www.w3.org/2000/svg">
<g clip-path="url(#clip0_2010_303)">
<g clip-path="url(#clip1_2010_303)">
<path d="M19.2488 48.7766C36.0215 47.0238 52.9382 49.7144 69.6698 47.29C70.4514 47.1753 70.1182 45.9918 69.3407 46.1064C52.7284 48.5104 35.9063 45.8075 19.2488 47.548C18.4672 47.6299 18.4589 48.8585 19.2488 48.7766Z" fill="#727272"/>
<path d="M19.0843 47.5727C17.4469 48.0806 17.6526 50.2101 18.5207 51.3404C19.9441 53.1915 23.1407 53.2324 25.2265 53.0358C26.0122 52.9621 26.0163 51.7335 25.2265 51.8073C23.8771 51.9342 22.4783 51.9219 21.166 51.537C20.483 51.3363 19.7631 51.0537 19.3723 50.4149C19.1707 50.0831 18.784 48.9528 19.4134 48.7604C20.1704 48.5228 19.8454 47.3352 19.0843 47.5727Z" fill="#727272"/>
<path d="M66.7818 47.6751C67.6498 47.6218 68.4891 47.4744 69.353 47.3597C70.723 47.1755 71.4265 47.544 71.6651 48.9774C71.8625 50.1691 71.1097 50.5172 70.0483 50.853C69.5464 51.0127 69.0198 51.111 68.5014 51.2134C67.115 51.4837 65.7245 51.6188 64.3134 51.668C63.5235 51.6966 63.5194 52.9252 64.3134 52.8966C66.7201 52.8106 73.4793 52.7205 73.216 48.9323C73.1502 47.9863 72.2328 46.6799 71.373 46.254C70.0894 45.6152 68.09 46.3646 66.7777 46.4465C65.9919 46.4956 65.9878 47.7242 66.7818 47.6751Z" fill="#727272"/>
<path d="M21.0549 52.7736C20.8862 55.3741 17.9242 56.8443 16.3526 58.6298C15.1184 60.0345 14.1475 61.6521 13.444 63.3762C11.9301 67.0702 11.6421 71.2105 12.4114 75.1051C13.9953 83.095 20.0593 89.6884 27.6332 92.5182C28.3778 92.7967 28.6987 91.6091 27.9623 91.3347C20.0963 88.3943 13.983 81.0269 13.3001 72.5783C12.975 68.5649 13.8266 64.3878 16.077 61.0092C17.9447 58.208 22.0546 56.4143 22.2891 52.7736C22.3385 51.9873 21.1043 51.9873 21.0549 52.7736Z" fill="#727272"/>
<path d="M67.8226 52.2495C67.8226 55.4807 70.18 57.5079 72.5784 59.3139C74.6395 60.8619 76.2357 62.369 77.2519 64.7975C78.1364 66.9065 78.626 69.1835 78.737 71.4646C79.1402 79.8558 74.2446 87.645 66.7201 91.3103C66.0084 91.6584 66.6296 92.7191 67.3413 92.371C74.331 88.9678 79.2595 82.0509 79.9177 74.3026C80.251 70.3834 79.5681 66.067 77.5687 62.6311C75.3677 58.8429 69.0568 57.1065 69.0527 52.2495C69.0568 51.4591 67.8226 51.4591 67.8226 52.2495Z" fill="#727272"/>
<path d="M27.267 91.6172C26.4689 93.3823 27.9005 94.9058 29.6778 94.9877C31.6072 95.0819 33.6436 94.6355 35.5772 94.5536C37.8193 94.4553 40.0615 94.4512 42.3036 94.4839C50.6714 94.6109 59.0351 95.2457 67.3659 94.1154C67.6498 94.0785 67.7938 93.7673 67.8185 93.5215C67.8843 92.8335 67.8267 92.3257 67.6251 91.6787C67.3906 90.9251 66.2017 91.2487 66.4362 92.0063C66.646 92.5018 66.6954 93.0096 66.5843 93.5215C66.7365 93.325 66.8846 93.1284 67.0368 92.9277C60.5408 93.8082 53.9873 93.5871 47.4543 93.3823C44.2865 93.284 41.1146 93.1939 37.9469 93.2472C36.4987 93.2717 35.0506 93.3291 33.6025 93.4274C32.8126 93.4806 32.0268 93.5543 31.2411 93.6321C30.661 93.6895 27.4439 94.185 28.3284 92.2274C28.6534 91.519 27.592 90.8965 27.267 91.6172Z" fill="#727272"/>
<path d="M19.0802 59.2237C14.0529 65.3789 13.662 73.9708 18.1751 80.5233C18.3972 80.8468 18.9321 80.5396 18.7099 80.212C14.3614 73.9012 14.6617 65.6042 19.5204 59.6537C19.7631 59.3548 19.3311 58.9166 19.0802 59.2237Z" fill="#727272"/>
<path d="M19.4134 82.8043C19.8166 83.3858 20.2773 83.9223 20.7916 84.4096C21.0796 84.6799 21.5156 84.2499 21.2277 83.9755C20.7504 83.5251 20.3226 83.0336 19.9441 82.4971C19.7219 82.1736 19.1871 82.4767 19.4134 82.8043Z" fill="#727272"/>
<path d="M22.865 86.3387C23.2641 86.3387 23.2641 85.7244 22.865 85.7244C22.466 85.7244 22.466 86.3387 22.865 86.3387Z" fill="#727272"/>
<path d="M66.6296 52.2822C66.3128 53.4617 66.0413 54.6493 66.5062 55.8287C66.9382 56.9222 67.8144 57.9091 68.5591 58.8142C70.3445 60.9765 73.9977 63.1593 74.1705 66.1734C74.1911 66.5666 74.8082 66.5707 74.7876 66.1734C74.6601 63.9169 72.9898 62.4713 71.4512 61.0052C70.4597 60.0592 69.5258 59.0558 68.6701 57.9829C68.0942 57.258 67.4442 56.4922 67.1109 55.6199C66.7037 54.5592 66.9381 53.5149 67.222 52.4501C67.3249 52.0652 66.7283 51.9014 66.6296 52.2822Z" fill="#727272"/>
<path d="M74.4379 67.5987C74.5243 68.385 74.6107 69.1713 74.6971 69.9576C74.7382 70.3467 75.3594 70.3508 75.3141 69.9576C75.2278 69.1713 75.1414 68.385 75.055 67.5987C75.0138 67.2097 74.3967 67.2056 74.4379 67.5987Z" fill="#727272"/>
<path d="M74.4955 71.5752C74.5408 71.8046 74.5037 72.0216 74.4173 72.2346C74.3556 72.3902 74.4873 72.5704 74.6313 72.6113C74.8082 72.6605 74.948 72.5499 75.0097 72.3984C75.1373 72.0789 75.1537 71.7472 75.0879 71.4114C75.018 71.0264 74.4215 71.1903 74.4955 71.5752Z" fill="#727272"/>
<path d="M47.7423 67.0825C49.2151 64.2977 51.9879 62.4753 55.2091 62.635C59.0434 62.8234 63.0751 66.1447 60.3887 70.068C58.813 72.3654 55.9826 73.852 53.8968 75.6621C51.5806 77.6729 49.4619 79.8884 47.5078 82.2555C47.0059 82.8616 47.8739 83.7339 48.3799 83.1237C51.3585 79.5158 54.7278 76.4648 58.4304 73.6145C60.9029 71.7061 63.6387 68.8107 62.1371 65.4567C60.8947 62.6801 57.4636 61.3164 54.5715 61.3983C51.1651 61.4965 48.2442 63.495 46.6726 66.46C46.3065 67.1603 47.372 67.7828 47.7423 67.0825Z" fill="#727272"/>
<path d="M47.4502 66.1285C44.8131 63.1758 41.5219 60.133 37.2516 60.3541C34.0838 60.518 31.3563 62.9096 30.8996 66.0589C30.336 69.8961 33.2158 73.2625 36.0215 75.4862C39.469 78.2177 44.6691 79.1637 47.2486 82.8659C47.697 83.5129 48.7666 82.8986 48.3141 82.2475C46.7055 79.9378 44.3647 78.7501 41.8798 77.5543C38.7203 76.035 35.606 74.1552 33.5737 71.223C31.3069 67.9591 31.6813 62.9669 36.075 61.7711C40.3741 60.604 43.9944 64.1095 46.5739 66.9967C47.1046 67.5905 47.9767 66.7182 47.4502 66.1285Z" fill="#727272"/>
</g>
<g clip-path="url(#clip2_2010_303)">
<path d="M43.4719 20.629C42.283 22.782 40.4689 24.507 38.1405 25.4C37.2313 25.7507 36.0342 25.7303 36.1535 24.4866C36.2276 23.7118 37.0668 23.039 37.6756 22.676C38.7123 22.0562 40.041 21.8523 41.1559 21.3711C41.8799 21.0571 41.2546 20.001 40.5347 20.315C38.5436 21.1754 36.3633 21.3793 35.232 23.4671C34.6273 24.5844 34.4298 26.1381 35.7915 26.7742C37.2683 27.4634 39.3006 26.3501 40.5265 25.5672C42.2296 24.4825 43.5665 23.0022 44.5333 21.2447C44.92 20.5556 43.8545 19.9357 43.4719 20.629Z" fill="#46A358"/>
<path d="M40.8967 20.119C39.3993 20.2821 37.9142 20.2903 36.4292 20.013C35.8861 19.9111 35.3472 19.7724 34.8207 19.6052C34.3764 19.4747 33.9485 19.3157 33.5248 19.1241C32.8954 18.333 32.9571 17.8926 33.7182 17.7947C35.9478 16.0902 39.4322 17.8803 41.6207 18.7081C42.3653 18.9895 42.6862 17.8069 41.9498 17.5296C40.0452 16.8079 37.9554 15.7232 35.8615 15.9556C34.6602 16.0861 31.8917 16.604 31.5708 18.1005C30.8303 21.5667 39.1072 21.5422 40.8967 21.3465C41.6783 21.2567 41.6866 20.0334 40.8967 20.119Z" fill="#46A358"/>
<path d="M42.353 17.5499C40.4812 16.0778 38.8192 13.7861 38.9097 11.3027C38.9509 10.1976 39.6584 9.72865 40.6828 10.2261C41.2463 10.4994 41.6372 11.1967 41.9457 11.7227C42.6615 12.9542 42.9618 14.361 43.2251 15.7434C43.3732 16.5141 44.5621 16.1879 44.414 15.4172C44.019 13.3538 43.4554 11.2048 41.9169 9.66341C41.0078 8.75406 39.4939 7.71015 38.4243 8.93348C35.9231 11.792 39.1977 16.616 41.4808 18.4144C42.0979 18.8996 42.9782 18.0392 42.353 17.5499Z" fill="#46A358"/>
<path d="M44.3852 15.7559C44.6567 13.7904 45.5206 10.051 47.7996 9.41491C49.9182 8.82771 49.7084 12.2041 49.116 13.3214C48.5195 14.4469 47.3471 15.5031 46.4955 16.445C45.969 17.0281 46.837 17.8967 47.3676 17.3095C48.5894 15.9557 50.416 14.402 50.6792 12.4977C50.8849 11.0216 50.7738 8.79101 49.1325 8.13856C47.635 7.5432 46.1541 8.89703 45.3025 9.96133C44.0478 11.5272 43.4637 13.4682 43.1922 15.4215C43.0852 16.2004 44.2741 16.5347 44.3852 15.7559Z" fill="#46A358"/>
<path d="M47.454 17.4647C48.8897 16.274 51.5555 15.4462 53.3079 16.5187C55.5787 17.9133 52.3618 18.7492 51.3004 18.8185C50.165 18.896 49.0296 18.8267 47.9024 18.6962C47.1167 18.6065 47.1208 19.8298 47.9024 19.9195C49.7454 20.1316 52.2342 20.4048 53.9497 19.4995C55.0152 18.9368 55.7803 17.5748 55.1262 16.429C54.394 15.1444 52.333 14.8345 50.996 14.8712C49.3381 14.9202 47.8448 15.5563 46.586 16.6002C45.9731 17.1059 46.8493 17.9704 47.454 17.4647Z" fill="#46A358"/>
<path d="M47.5857 19.8786C48.8569 20.3435 50.1198 21.0449 50.8438 22.2274C51.7488 23.7117 51.7694 26.4439 49.1366 25.9341C46.8205 25.4856 45.1462 23.0471 44.6732 20.9307C44.5004 20.1641 43.3115 20.4862 43.4843 21.2569C43.9039 23.1408 44.9529 24.8046 46.5243 25.9586C47.7585 26.8679 49.9264 27.9526 51.3786 26.921C52.8719 25.8607 52.8719 23.6669 52.1972 22.1581C51.3992 20.3802 49.7002 19.3485 47.923 18.6961C47.1661 18.4269 46.8452 19.6095 47.5857 19.8786Z" fill="#46A358"/>
<path d="M35.1045 23.2467C31.5008 25.3998 28.8433 27.7976 28.2139 32.1119C27.5269 36.7972 28.6253 41.6947 29.6291 46.2577C29.7977 47.0284 30.9866 46.7022 30.8179 45.9315C29.9294 41.8945 29.0202 37.7107 29.2959 33.5554C29.5962 29.025 31.9657 26.5498 35.7216 24.307C36.4045 23.8992 35.7874 22.839 35.1045 23.2467Z" fill="#46A358"/>
<path d="M51.0084 21.8645C56.0477 22.2559 59.6144 26.2685 60.9678 30.8642C62.4405 35.8676 61.6178 41.1361 60.8156 46.1763C60.6922 46.947 61.8811 47.2773 62.0045 46.5025C62.9424 40.5897 63.8845 34.3099 61.4615 28.6091C59.6267 24.2908 55.8174 21.0163 51.0084 20.6411C50.2144 20.58 50.2185 21.8033 51.0084 21.8645Z" fill="#46A358"/>
<path d="M36.3263 25.7833C30.2996 30.1302 32.2536 39.9577 33.4713 46.0662C33.6235 46.8369 34.8165 46.5107 34.6602 45.74C34.0226 42.543 33.4302 39.3093 33.4919 36.039C33.5536 32.8583 34.1583 28.8498 36.9475 26.8395C37.5851 26.3787 36.9721 25.3184 36.3263 25.7833Z" fill="#46A358"/>
<path d="M43.0934 21.8278C40.8514 25.2491 39.4034 29.074 38.8768 33.1273C38.6012 35.2519 38.5806 37.405 38.8357 39.5336C39.1113 41.8579 39.8641 44.0925 40.1438 46.4169C40.2343 47.1876 41.4726 47.1998 41.378 46.4169C40.8926 42.3595 39.642 38.6242 39.9711 34.473C40.3125 30.1628 41.7935 26.0605 44.163 22.4435C44.5908 21.7829 43.5254 21.1713 43.0934 21.8278Z" fill="#46A358"/>
<path d="M46.1088 25.6079C47.9477 28.6173 48.3344 32.0222 48.6552 35.4598C48.9885 39.036 49.26 42.6163 49.4903 46.2007C49.5397 46.9836 50.7738 46.9877 50.7245 46.2007C50.4653 42.1433 50.1732 38.0859 49.7536 34.0407C49.4245 30.8641 48.8692 27.7528 47.1743 24.988C46.7629 24.3193 45.6933 24.9309 46.1088 25.6079Z" fill="#46A358"/>
<path d="M51.7241 26.1789C56.3192 31.9082 56.4714 39.2237 56.3069 46.2049C56.2904 46.9919 57.5246 46.9919 57.541 46.2049C57.7138 38.8404 57.4176 31.3291 52.5963 25.3144C52.1026 24.6986 51.2346 25.5713 51.7241 26.1789Z" fill="#46A358"/>
<path d="M43.9533 27.6712C43.8833 27.9444 43.8175 28.2136 43.7476 28.4868C43.6529 28.8701 44.2453 29.0332 44.3441 28.6499C44.414 28.3767 44.4798 28.1075 44.5497 27.8343C44.6444 27.4551 44.052 27.292 43.9533 27.6712Z" fill="#46A358"/>
<path d="M45.2861 29.7957C45.2861 30.1015 45.2861 30.4074 45.2861 30.7132C45.2861 31.1087 45.9031 31.1087 45.9031 30.7132C45.9031 30.4074 45.9031 30.1015 45.9031 29.7957C45.9031 29.4001 45.2861 29.4001 45.2861 29.7957Z" fill="#46A358"/>
<path d="M42.3077 31.7328C42.2748 32.1732 42.2378 32.6177 42.2049 33.0581C42.1761 33.4496 42.7932 33.4496 42.822 33.0581C42.8549 32.6177 42.8919 32.1732 42.9248 31.7328C42.9536 31.3413 42.3365 31.3413 42.3077 31.7328Z" fill="#46A358"/>
<path d="M46.3145 33.8733C46.3145 34.2811 46.3145 34.6889 46.3145 35.0967C46.3145 35.4922 46.9316 35.4922 46.9316 35.0967C46.9316 34.6889 46.9316 34.2811 46.9316 33.8733C46.9316 33.4778 46.3145 33.4778 46.3145 33.8733Z" fill="#46A358"/>
<path d="M43.9491 36.1162C43.9491 36.5566 43.9491 37.0011 43.9491 37.4415C43.9491 37.8371 44.5662 37.8371 44.5662 37.4415C44.5662 37.0011 44.5662 36.5566 44.5662 36.1162C44.5662 35.7207 43.9491 35.7207 43.9491 36.1162Z" fill="#46A358"/>
<path d="M42.6121 40.6018C42.6121 41.2135 42.6121 41.8252 42.6121 42.4368C42.6121 42.8324 43.2292 42.8324 43.2292 42.4368C43.2292 41.8252 43.2292 41.2135 43.2292 40.6018C43.2292 40.2063 42.6121 40.2063 42.6121 40.6018Z" fill="#46A358"/>
<path d="M40.7815 36.6014C40.8514 37.0092 40.9255 37.417 40.9954 37.8247C41.0612 38.2121 41.6577 38.049 41.5919 37.6616C41.522 37.2539 41.4479 36.8461 41.378 36.4383C41.3081 36.055 40.7116 36.2181 40.7815 36.6014Z" fill="#46A358"/>
<path d="M45.5 42.6408C45.5329 43.0486 45.5699 43.4564 45.6028 43.8642C45.6358 44.2556 46.2528 44.2556 46.2199 43.8642C46.187 43.4564 46.15 43.0486 46.1171 42.6408C46.0842 42.2494 45.463 42.2453 45.5 42.6408Z" fill="#46A358"/>
<path d="M47.3471 38.0532C47.38 38.461 47.417 38.8687 47.4499 39.2765C47.4828 39.6639 48.0999 39.668 48.067 39.2765C48.0341 38.8687 47.9971 38.461 47.9642 38.0532C47.9312 37.6617 47.3142 37.6576 47.3471 38.0532Z" fill="#46A358"/>
<path d="M54.431 24.4008C54.9082 24.8127 55.3854 25.2245 55.8626 25.6323C56.1629 25.8892 56.599 25.457 56.2987 25.2001C55.8215 24.7882 55.3443 24.3764 54.8671 23.9686C54.5709 23.7117 54.1307 24.1398 54.431 24.4008Z" fill="#46A358"/>
<path d="M54.6902 27.8058C54.9576 28.2829 55.2291 28.764 55.4965 29.2411C55.6898 29.5837 56.2246 29.2779 56.0313 28.9312C55.7639 28.4541 55.4924 27.973 55.225 27.4959C55.0275 27.1533 54.4969 27.4632 54.6902 27.8058Z" fill="#46A358"/>
<path d="M57.1625 28.0055C57.467 28.4173 57.7714 28.8292 58.0758 29.2369C58.3062 29.5509 58.8451 29.2451 58.6106 28.927C58.3062 28.5152 58.0017 28.1033 57.6973 27.6955C57.4628 27.3856 56.928 27.6874 57.1625 28.0055Z" fill="#46A358"/>
<path d="M58.6847 33.3393C58.7875 34.0529 58.8945 34.7665 58.9973 35.4801C59.0549 35.8675 59.6473 35.7044 59.5938 35.317C59.491 34.6034 59.384 33.8898 59.2812 33.1761C59.2195 32.7888 58.6271 32.9559 58.6847 33.3393Z" fill="#46A358"/>
<path d="M56.6113 31.5083C56.7142 31.8468 56.817 32.1893 56.9198 32.5278C57.035 32.9029 57.6274 32.7439 57.5163 32.3647C57.4135 32.0262 57.3106 31.6837 57.2078 31.3452C57.0926 30.9701 56.4961 31.1291 56.6113 31.5083Z" fill="#46A358"/>
<path d="M59.8818 39.1746C59.927 39.6599 59.9188 40.1452 59.8406 40.6263C59.7789 41.0096 60.3713 41.1768 60.4371 40.7894C60.5235 40.2512 60.5523 39.717 60.5029 39.1746C60.4618 38.7873 59.8447 38.7832 59.8818 39.1746Z" fill="#46A358"/>
<path d="M58.4501 41.1116C58.4501 41.4868 58.4501 41.8578 58.4501 42.233C58.4501 42.6285 59.0672 42.6285 59.0672 42.233C59.0672 41.8578 59.0672 41.4868 59.0672 41.1116C59.0672 40.7161 58.4501 40.7161 58.4501 41.1116Z" fill="#46A358"/>
<path d="M59.0878 30.8928C59.2565 31.3006 59.4293 31.7084 59.5979 32.1162C59.6637 32.2711 59.8036 32.3771 59.9764 32.3282C60.1204 32.2915 60.2561 32.1039 60.1903 31.953C60.0216 31.5453 59.8489 31.1375 59.6802 30.7297C59.6144 30.5747 59.4745 30.4687 59.3017 30.5177C59.1577 30.5544 59.0261 30.7419 59.0878 30.8928Z" fill="#46A358"/>
<path d="M57.9359 37.9512C57.9359 38.1877 57.9359 38.4283 57.9359 38.6648C57.9359 39.0604 58.553 39.0604 58.553 38.6648C58.553 38.4283 58.553 38.1877 58.553 37.9512C58.553 37.5557 57.9359 37.5557 57.9359 37.9512Z" fill="#46A358"/>
<path d="M59.1701 44.7817C59.1536 45.0712 59.0837 45.3485 58.9767 45.6177C58.915 45.7726 59.0467 45.952 59.1906 45.9928C59.3675 46.0417 59.5074 45.9316 59.5691 45.7808C59.7007 45.4586 59.7666 45.1283 59.7871 44.7817C59.8118 44.3862 59.1948 44.3902 59.1701 44.7817Z" fill="#46A358"/>
<path d="M33.2903 26.8841C33.0805 27.1859 32.8707 27.4876 32.6568 27.7894C32.4305 28.1156 32.9653 28.4214 33.1916 28.0993C33.4014 27.7975 33.6112 27.4958 33.8251 27.194C34.0472 26.8678 33.5124 26.5619 33.2903 26.8841Z" fill="#46A358"/>
<path d="M31.5296 31.3453C31.4515 31.7164 31.3774 32.0874 31.2993 32.4626C31.2211 32.8459 31.8135 33.0131 31.8958 32.6257C31.9739 32.2546 32.048 31.8836 32.1261 31.5084C32.2043 31.1251 31.6078 30.962 31.5296 31.3453Z" fill="#46A358"/>
<path d="M31.3322 29.1228C31.0072 29.551 30.7645 30.024 30.5999 30.5337C30.4765 30.9088 31.073 31.0679 31.1964 30.6968C31.3486 30.236 31.5749 29.8201 31.8669 29.4327C32.1055 29.1146 31.5666 28.8129 31.3322 29.1228Z" fill="#46A358"/>
<path d="M30.0775 33.1803C30.0034 33.69 29.9252 34.1957 29.8512 34.7054C29.7936 35.0887 30.3901 35.2559 30.4477 34.8685C30.5217 34.3588 30.5999 33.8531 30.674 33.3434C30.7315 32.956 30.1351 32.7888 30.0775 33.1803Z" fill="#46A358"/>
<path d="M30.6945 36.1163C30.6411 36.626 30.674 37.1276 30.7727 37.6292C30.8468 38.0165 31.4432 37.8534 31.3692 37.466C31.2828 37.0175 31.2664 36.5689 31.3157 36.1163C31.3486 35.7248 30.7316 35.7289 30.6945 36.1163Z" fill="#46A358"/>
<path d="M31.2006 39.9902C31.2335 40.296 31.2705 40.6018 31.3034 40.9077C31.3199 41.0708 31.4309 41.2135 31.6119 41.2135C31.7641 41.2135 31.941 41.0749 31.9205 40.9077C31.8876 40.6018 31.8505 40.296 31.8176 39.9902C31.8012 39.827 31.6901 39.6843 31.5091 39.6843C31.3569 39.6843 31.1841 39.823 31.2006 39.9902Z" fill="#46A358"/>
<path d="M30.2009 42.2901C30.4395 42.6775 30.6123 43.0852 30.7192 43.5297C30.8138 43.913 31.4062 43.7499 31.3157 43.3666C31.1964 42.8773 30.9989 42.4124 30.7357 41.9802C30.5259 41.6458 29.9952 41.9557 30.2009 42.2901Z" fill="#46A358"/>
<path d="M31.5173 44.8632C31.5872 45.0345 31.6531 45.2017 31.723 45.373C31.7847 45.5238 31.9287 45.6339 32.1015 45.585C32.2496 45.5442 32.3812 45.3648 32.3154 45.2099C32.2455 45.0386 32.1796 44.8714 32.1097 44.7001C32.048 44.5492 31.904 44.4391 31.7312 44.4881C31.5872 44.5248 31.4556 44.7083 31.5173 44.8632Z" fill="#46A358"/>
</g>
<circle cx="39" cy="61" r="37" fill="#46A358" fill-opacity="0.13"/>
</g>
<defs>
<clipPath id="clip0_2010_303">
<rect width="92" height="95" fill="white"/>
</clipPath>
<clipPath id="clip1_2010_303">
<rect width="68" height="49" fill="white" transform="translate(12 46)"/>
</clipPath>
<clipPath id="clip2_2010_303">
<rect width="35" height="39" fill="white" transform="translate(28 8)"/>
</clipPath>
</defs>
</svg>
